<svg width="29" height="29" viewBox="0 0 29 29" fill="none" xmlns="http://www.w3.org/2000/svg">
<path d="M6.83077 9.57229H22.1684V22.0708C22.1684 22.8133 21.5664 23.4153 20.8248 23.4153H19.2885V27.2217C19.2885 28.1883 18.5175 28.9717 17.5658 28.9717C16.6116 28.9717 15.8418 28.1883 15.8418 27.2217V23.4153H13.1587V27.2217C13.1587 28.1883 12.3861 28.9717 11.4345 28.9717C10.483 28.9717 9.71049 28.1883 9.71049 27.2217V23.4153H8.17558C7.43382 23.4153 6.83071 22.8133 6.83071 22.0708L6.83077 9.57229ZM3.82513 9.47028C2.86371 9.47028 2.08496 10.2611 2.08496 11.2375V18.1441C2.08496 19.1192 2.86371 19.9115 3.82513 19.9115C4.78672 19.9115 5.5653 19.1192 5.5653 18.1441V11.2375C5.5653 10.2611 4.78672 9.47028 3.82513 9.47028ZM22.1684 8.31283H6.83077C7.02006 6.12774 8.43749 4.24739 10.478 3.15864L9.0197 1.0174C8.82304 0.728646 8.89724 0.334654 9.18656 0.138054C9.47554 -0.0585451 9.86874 0.0162205 10.0664 0.304748L11.6558 2.64015C12.537 2.33543 13.4935 2.16046 14.4996 2.16046C15.5068 2.16046 16.4634 2.33543 17.3446 2.64055L18.934 0.305597C19.1291 0.0162772 19.5236 -0.0584885 19.8126 0.138111C20.1019 0.334711 20.1761 0.728703 19.9794 1.01746L18.5224 3.1587C20.5628 4.24677 21.9792 6.12712 22.1684 8.31283ZM12.113 5.34378C12.113 4.87519 11.7336 4.49513 11.2652 4.49513C10.7956 4.49513 10.4161 4.87519 10.4161 5.34378C10.4161 5.81214 10.7968 6.19203 11.2652 6.19203C11.7335 6.19203 12.113 5.81214 12.113 5.34378ZM18.6905 5.34378C18.6905 4.87519 18.3098 4.49513 17.8415 4.49513C17.3719 4.49513 16.9936 4.87519 16.9936 5.34378C16.9936 5.81214 17.3719 6.19203 17.8415 6.19203C18.3098 6.19203 18.6905 5.81214 18.6905 5.34378ZM25.1752 9.46784C24.2148 9.46784 23.4338 10.2599 23.4338 11.2363V18.1453C23.4338 19.1217 24.2148 19.914 25.1752 19.914C26.1368 19.914 26.9141 19.1217 26.9141 18.1453V11.2363C26.9142 10.2599 26.1368 9.46784 25.1752 9.46784Z" fill="white"/>
</svg>
