<svg width="31" height="31" viewBox="0 0 31 31" fill="none" xmlns="http://www.w3.org/2000/svg">
<path fill-rule="evenodd" clip-rule="evenodd" d="M20.2601 4.94895C21.3901 3.63922 22.1519 1.81502 21.9434 0C20.3149 0.062 18.3448 1.04028 17.1771 2.34846C16.1285 3.5094 15.2132 5.36439 15.4593 7.14377C17.2758 7.27861 19.13 6.26022 20.2601 4.94895ZM24.3336 16.4687C24.3791 21.1605 28.6282 22.7213 28.6752 22.7414C28.6407 22.8515 27.9965 24.9653 26.437 27.1507C25.0875 29.0386 23.6879 30.9188 21.4826 30.9591C19.3165 30.9979 18.6191 29.7285 16.1411 29.7285C13.6646 29.7285 12.8904 30.9187 10.8403 30.9977C8.71181 31.0737 7.08959 28.9552 5.7307 27.0735C2.95021 23.2249 0.826447 16.1976 3.67903 11.4547C5.09592 9.10029 7.62719 7.60707 10.3763 7.56987C12.4656 7.53112 14.4389 8.91704 15.7163 8.91704C16.9937 8.91704 19.3918 7.2508 21.9121 7.4957C22.9669 7.53755 25.9292 7.90322 27.8304 10.5707C27.6768 10.6622 24.296 12.5473 24.3336 16.4687Z" fill="white"/>
</svg>
