<svg width="32" height="32" viewBox="0 0 32 32" fill="none" xmlns="http://www.w3.org/2000/svg">
<path d="M14.9234 8.07991C14.8984 8.15191 14.7824 8.14091 14.7164 8.16191C14.6574 8.19291 14.6094 8.24691 14.5414 8.24691C14.4794 8.24691 14.3794 8.22191 14.3714 8.16191C14.3594 8.07991 14.4814 7.99591 14.5584 7.99591C14.6084 7.97191 14.6664 7.95891 14.7274 7.95891C14.7834 7.95891 14.8364 7.96991 14.8844 7.99091L14.8814 7.98991C14.9034 7.99891 14.9194 8.01991 14.9194 8.04491C14.9194 8.04791 14.9194 8.04991 14.9184 8.05291V8.07791H14.9224L14.9234 8.07991ZM15.6114 8.07991V8.05291C15.6034 8.02791 15.6274 8.00091 15.6474 7.99091C15.6934 7.97091 15.7474 7.95891 15.8044 7.95891C15.8654 7.95891 15.9234 7.97291 15.9744 7.99691L15.9724 7.99591C16.0514 7.99591 16.1724 8.07991 16.1594 8.16491C16.1524 8.22591 16.0534 8.24691 15.9904 8.24691C15.9214 8.24691 15.8754 8.19291 15.8144 8.16191C15.7494 8.13891 15.6324 8.15191 15.6104 8.08091L15.6114 8.07991ZM16.9634 10.0579C16.4314 10.3949 15.8024 10.6319 15.1284 10.7239L15.1044 10.7269C14.4984 10.6919 13.9474 10.4789 13.4974 10.1389L13.5044 10.1439C13.3124 9.97691 13.1544 9.80891 13.0384 9.72491C12.8334 9.55791 12.8584 9.30891 12.9464 9.30891C13.0824 9.32891 13.1074 9.47591 13.1954 9.55891C13.3154 9.64091 13.4644 9.80891 13.6454 9.97491C14.0424 10.3029 14.5444 10.5159 15.0954 10.5579L15.1044 10.5589C15.7584 10.5019 16.3534 10.2919 16.8674 9.96691L16.8514 9.97691C17.0954 9.80791 17.4074 9.55991 17.6614 9.39291C17.8564 9.22291 17.8474 9.05891 18.0104 9.05891C18.1704 9.07891 18.0534 9.22591 17.8264 9.47391C17.5804 9.66191 17.2994 9.85491 17.0084 10.0339L16.9644 10.0589L16.9634 10.0579ZM8.01737 21.3969H8.02937C8.09837 21.3969 8.16637 21.4039 8.23237 21.4159L8.22537 21.4149C8.76937 21.5549 9.21737 21.8929 9.49837 22.3459L9.50337 22.3549L10.6404 24.4339L10.6444 24.4379C11.1014 25.2109 11.5924 25.8799 12.1414 26.4969L12.1304 26.4839C12.6204 27.0039 12.9504 27.6799 13.0394 28.4299L13.0414 28.4459V28.4539C13.0294 29.2709 12.4284 29.9449 11.6454 30.0699L11.6364 30.0709C11.4364 30.1019 11.2044 30.1189 10.9694 30.1189C10.1124 30.1189 9.31037 29.8859 8.62237 29.4789L8.64337 29.4909C7.59037 29.0499 6.36837 28.7769 5.08837 28.7389H5.07337C4.70137 28.7139 4.37737 28.5239 4.17237 28.2429L4.17037 28.2399C4.11637 28.0659 4.08537 27.8659 4.08537 27.6579C4.08537 27.3079 4.17337 26.9789 4.32937 26.6919L4.32437 26.7029V26.6979L4.32737 26.6939C4.36837 26.5059 4.39237 26.2889 4.39237 26.0669C4.39237 25.7929 4.35637 25.5279 4.28837 25.2759L4.29337 25.2969C4.25237 25.1469 4.22837 24.9739 4.22837 24.7949C4.22837 24.5529 4.27137 24.3219 4.35137 24.1079L4.34737 24.1219C4.54737 23.7049 4.84237 23.6219 5.20937 23.4559C5.64737 23.3229 6.02837 23.1219 6.36037 22.8629L6.35237 22.8689H6.35437V22.8659C6.67437 22.5309 6.91037 22.1149 7.18937 21.8189C7.38437 21.5699 7.68137 21.4089 8.01637 21.3989H8.01837L8.01737 21.3969ZM21.5314 21.3359C21.5304 21.3529 21.5304 21.3739 21.5304 21.3949C21.5304 22.1379 21.9794 22.7759 22.6214 23.0529L22.6334 23.0579C22.6814 23.0609 22.7374 23.0629 22.7934 23.0629C23.6244 23.0629 24.3684 22.6919 24.8684 22.1059L24.8714 22.1019L25.1354 22.0899C25.1884 22.0819 25.2494 22.0779 25.3114 22.0779C25.6524 22.0779 25.9634 22.2099 26.1944 22.4259L26.1934 22.4249L26.1974 22.4289C26.4464 22.7299 26.6194 23.1019 26.6844 23.5109L26.6864 23.5239C26.7414 24.0289 26.9244 24.4839 27.2034 24.8639L27.1984 24.8559C27.6144 25.2119 27.9034 25.7059 27.9914 26.2669L27.9934 26.2799L27.9974 26.2709V26.2929L27.9934 26.2779C27.9744 26.6049 27.7624 26.7729 27.3714 27.0219C26.1874 27.5189 25.1704 28.1799 24.2944 28.9899L24.3014 28.9839C23.6934 29.7759 22.8004 30.3229 21.7784 30.4699L21.7574 30.4719C21.6834 30.4819 21.5974 30.4879 21.5104 30.4879C20.7424 30.4879 20.0824 30.0239 19.7944 29.3619L19.7894 29.3499L19.7834 29.3459C19.6904 29.0599 19.6374 28.7309 19.6374 28.3899C19.6374 27.9739 19.7164 27.5769 19.8614 27.2119L19.8534 27.2339C20.0874 26.5659 20.2884 25.7679 20.4214 24.9459L20.4324 24.8629C20.4484 24.0509 20.5364 23.2699 20.6904 22.5129L20.6764 22.5959C20.7614 22.0779 21.0574 21.6419 21.4704 21.3709L21.4774 21.3669L21.5334 21.3399L21.5314 21.3359ZM18.8004 10.1419C19.4004 12.2889 20.1394 14.1439 21.0474 15.8989L20.9684 15.7319C21.5814 16.8219 22.0584 18.0869 22.3314 19.4269L22.3454 19.5109C22.3544 19.5109 22.3654 19.5109 22.3764 19.5109C22.5934 19.5109 22.8034 19.5399 23.0034 19.5949L22.9864 19.5909C23.0964 19.1959 23.1594 18.7429 23.1594 18.2749C23.1594 16.8489 22.5724 15.5589 21.6264 14.6359L21.6254 14.6349C21.3504 14.3849 21.3354 14.2159 21.4714 14.2159C22.4424 15.1259 23.1604 16.2939 23.5164 17.6099L23.5284 17.6609C23.6174 17.9899 23.6684 18.3679 23.6684 18.7579C23.6684 19.1089 23.6274 19.4509 23.5494 19.7779L23.5554 19.7479C23.6294 19.7859 23.7154 19.8149 23.8064 19.8309L23.8124 19.8319C25.1024 20.4989 25.5784 21.0039 25.3494 21.7529V21.6989C25.2744 21.6949 25.1994 21.6989 25.1244 21.6989H25.1044C25.2934 21.1149 24.8774 20.6679 23.7734 20.1689C22.6304 19.6689 21.7164 19.7489 21.5614 20.7499C21.5504 20.7989 21.5424 20.8559 21.5394 20.9149V20.9179C21.4664 20.9479 21.3794 20.9759 21.2894 20.9959L21.2784 20.9979C20.7704 21.3339 20.4084 21.8569 20.2894 22.4669L20.2874 22.4809C20.1394 23.1759 20.0464 23.9809 20.0314 24.8039V24.8159V24.8199C19.9404 25.4569 19.8014 26.0269 19.6134 26.5729L19.6334 26.5069C18.6504 27.3109 17.3824 27.7969 15.9994 27.7969C14.8694 27.7969 13.8154 27.4719 12.9264 26.9099L12.9504 26.9239C12.8044 26.6709 12.6374 26.4519 12.4474 26.2569L12.4484 26.2579C12.3514 26.0979 12.2374 25.9609 12.1064 25.8429L12.1044 25.8419C12.3114 25.8419 12.5114 25.8109 12.7004 25.7539L12.6854 25.7579C12.8654 25.6729 13.0034 25.5259 13.0764 25.3459L13.0784 25.3409C13.0964 25.2479 13.1074 25.1419 13.1074 25.0329C13.1074 24.5879 12.9324 24.1849 12.6464 23.8869L12.6474 23.8879C12.0284 23.1269 11.2884 22.4929 10.4514 22.0079L10.4134 21.9879C9.74237 21.5999 9.23437 20.9929 8.98337 20.2659L8.97637 20.2439C8.88337 19.9259 8.82937 19.5599 8.82937 19.1819C8.82937 18.8289 8.87637 18.4869 8.96337 18.1609L8.95737 18.1879C9.33437 16.8739 9.87837 15.7269 10.5774 14.6919L10.5494 14.7349C10.6834 14.6539 10.5954 14.9039 10.0394 15.9519C9.56537 16.6649 9.28237 17.5419 9.28237 18.4849C9.28237 19.3249 9.50637 20.1119 9.89837 20.7909L9.88637 20.7689C9.93837 19.4599 10.2314 18.2319 10.7204 17.1099L10.6954 17.1749C11.7504 15.2729 12.5494 13.0639 12.9704 10.7229L12.9904 10.5919C13.0504 10.6369 13.2614 10.7609 13.3514 10.8439C13.6234 11.0099 13.8264 11.2599 14.0884 11.4249C14.3554 11.6849 14.7214 11.8449 15.1234 11.8449C15.1444 11.8449 15.1654 11.8449 15.1864 11.8439H15.1834C15.2324 11.8479 15.2774 11.8519 15.3204 11.8519C15.7794 11.8429 16.2074 11.7199 16.5794 11.5099L16.5664 11.5169C16.9284 11.3499 17.2164 11.0999 17.4914 11.0169H17.4974C18.0324 10.8719 18.4804 10.5629 18.7974 10.1479L18.8014 10.1419H18.8004ZM15.3014 7.46491C15.3044 7.46491 15.3074 7.46491 15.3104 7.46491C15.8794 7.46491 16.4044 7.65191 16.8274 7.96791L16.8204 7.96291C17.1984 8.19691 17.6344 8.39591 18.0954 8.53691L18.1354 8.54691H18.1394C18.3854 8.65691 18.5884 8.82791 18.7334 9.04091L18.7364 9.04591V8.88191C18.7824 8.97391 18.8104 9.08291 18.8104 9.19791C18.8104 9.29591 18.7904 9.38891 18.7554 9.47391L18.7574 9.46891C18.4694 9.97591 18.0024 10.3529 17.4444 10.5169L17.4284 10.5209V10.5229C17.0934 10.6919 16.8024 10.9389 16.4604 11.1039C16.1104 11.3139 15.6894 11.4379 15.2384 11.4379C15.2234 11.4379 15.2084 11.4379 15.1934 11.4379H15.1954C15.1734 11.4389 15.1474 11.4399 15.1214 11.4399C14.9474 11.4399 14.7794 11.4089 14.6254 11.3509L14.6354 11.3539C14.4764 11.2669 14.3454 11.1849 14.2184 11.0969L14.2324 11.1069C14.0054 10.9079 13.7554 10.7169 13.4934 10.5419L13.4674 10.5259V10.5199H13.4614C13.0864 10.3209 12.7914 10.0159 12.6094 9.64391L12.6044 9.63191C12.5774 9.56491 12.5624 9.48691 12.5624 9.40591C12.5624 9.18791 12.6744 8.99591 12.8434 8.88391L12.8454 8.88291C13.1254 8.71391 13.3204 8.54391 13.4494 8.46291C13.5794 8.37091 13.6284 8.33591 13.6694 8.29891H13.6714V8.29491C13.9394 7.95591 14.2944 7.69591 14.7034 7.54891L14.7194 7.54391C14.8934 7.49391 15.0934 7.46491 15.3004 7.46291L15.3014 7.46491ZM13.5894 5.33291H13.6344C13.8224 5.33691 13.9954 5.39991 14.1354 5.50291L14.1334 5.50091C14.3124 5.65991 14.4584 5.85291 14.5584 6.07091L14.5624 6.08191C14.6754 6.32691 14.7454 6.61191 14.7534 6.91191V6.91491V6.91991C14.7574 6.96591 14.7594 7.01891 14.7594 7.07191C14.7594 7.13491 14.7564 7.19791 14.7504 7.25991L14.7514 7.25191V7.35191C14.7144 7.36091 14.6814 7.37391 14.6474 7.38191C14.4564 7.46091 14.2954 7.54491 14.1424 7.63991L14.1564 7.63191C14.1644 7.57691 14.1684 7.51391 14.1684 7.44991C14.1684 7.39691 14.1654 7.34391 14.1594 7.29191L14.1604 7.29791V7.27891C14.1424 7.12491 14.1064 6.98391 14.0534 6.85091L14.0574 6.86191C14.0164 6.72991 13.9444 6.61791 13.8504 6.52891C13.7954 6.47891 13.7224 6.44791 13.6414 6.44791C13.6344 6.44791 13.6274 6.44791 13.6204 6.44891H13.6214H13.5954C13.4924 6.45991 13.4064 6.52391 13.3634 6.61191L13.3624 6.61391C13.2854 6.70691 13.2324 6.82191 13.2124 6.94791V6.95191C13.1894 7.03791 13.1774 7.13691 13.1774 7.23891C13.1774 7.28291 13.1794 7.32691 13.1844 7.36991V7.36491V7.38391C13.2004 7.53791 13.2364 7.67991 13.2884 7.81191L13.2844 7.80091C13.3264 7.93291 13.3974 8.04591 13.4914 8.13591C13.5034 8.14791 13.5174 8.15791 13.5334 8.16591H13.5344C13.4514 8.21891 13.3794 8.27491 13.3134 8.33691L13.3144 8.33591C13.2694 8.37591 13.2144 8.40591 13.1534 8.41991L13.1504 8.42091C13.0274 8.27391 12.9134 8.10891 12.8154 7.93491L12.8074 7.91891C12.6944 7.67391 12.6244 7.38991 12.6134 7.08891V7.08491C12.6094 7.03691 12.6074 6.98091 12.6074 6.92391C12.6074 6.68291 12.6464 6.45091 12.7174 6.23391L12.7134 6.24991C12.7874 5.99191 12.9084 5.76891 13.0694 5.57891L13.0674 5.58191C13.1944 5.43191 13.3804 5.33691 13.5894 5.33191H13.5904L13.5894 5.33291ZM17.2914 5.25891H17.3074C17.3084 5.25891 17.3094 5.25891 17.3114 5.25891C17.5864 5.25891 17.8384 5.35191 18.0404 5.50791L18.0374 5.50591C18.2664 5.68291 18.4504 5.90591 18.5794 6.16091L18.5844 6.17191C18.7054 6.43791 18.7804 6.74691 18.7914 7.07291V7.07691C18.7914 7.05191 18.7984 7.02691 18.7984 7.00191V7.13291L18.7934 7.10691L18.7884 7.07691C18.7854 7.39691 18.7174 7.69891 18.5954 7.97391L18.6014 7.95991C18.5394 8.12291 18.4494 8.26291 18.3354 8.37891C18.3054 8.36091 18.2684 8.34391 18.2314 8.32891L18.2254 8.32691C18.0904 8.28491 17.9724 8.22791 17.8654 8.15791L17.8704 8.16091C17.7934 8.12891 17.7014 8.10091 17.6064 8.07991L17.5954 8.07791C17.6764 8.00191 17.7514 7.92091 17.8204 7.83491L17.8244 7.82991C17.8874 7.68191 17.9264 7.51091 17.9344 7.33091V7.32791V7.30291C17.9344 7.29491 17.9344 7.28691 17.9344 7.27791C17.9344 7.10791 17.9064 6.94491 17.8544 6.79291L17.8574 6.80391C17.7944 6.64491 17.7174 6.50791 17.6254 6.38291L17.6294 6.38791C17.5424 6.29991 17.4274 6.23991 17.2984 6.22291H17.2954H17.2754C17.2744 6.22291 17.2724 6.22291 17.2714 6.22291C17.1394 6.22291 17.0214 6.28791 16.9494 6.38691L16.9484 6.38791C16.8324 6.50091 16.7444 6.64091 16.6944 6.79791L16.6924 6.80491C16.6294 6.95191 16.5884 7.12291 16.5804 7.30091V7.30391V7.32791C16.5824 7.44791 16.5914 7.56391 16.6074 7.67691L16.6054 7.66191C16.3644 7.57791 16.0584 7.49291 15.8464 7.40991C15.8344 7.33691 15.8264 7.25091 15.8244 7.16291V7.15991V7.13491C15.8234 7.11491 15.8234 7.09191 15.8234 7.06891C15.8234 6.74491 15.8924 6.43791 16.0174 6.16091L16.0114 6.17491C16.1174 5.89591 16.3044 5.66691 16.5434 5.51191L16.5484 5.50891C16.7524 5.35291 17.0114 5.25891 17.2914 5.25891ZM16.6304 1.00391C16.4364 1.00391 16.2364 1.01391 16.0304 1.02991C10.7494 1.44591 12.1504 7.03691 12.0694 8.89991C12.0194 10.3259 11.5354 11.6289 10.7444 12.6919L10.7574 12.6739C9.35037 14.2759 8.20237 16.1479 7.40637 18.1969L7.36337 18.3239C7.10537 19.0089 6.95537 19.7999 6.95537 20.6259C6.95537 20.9109 6.97337 21.1919 7.00737 21.4669L7.00437 21.4339C6.94837 21.4799 6.90137 21.5359 6.86837 21.5999L6.86737 21.6029C6.54237 21.9379 6.30537 22.3529 6.03837 22.6509C5.75537 22.8679 5.42337 23.0389 5.06337 23.1449L5.04237 23.1499C4.57837 23.2889 4.20037 23.5919 3.96737 23.9909L3.96237 23.9999C3.85837 24.2119 3.79737 24.4609 3.79737 24.7249C3.79737 24.7349 3.79737 24.7439 3.79737 24.7539C3.79937 24.9919 3.82337 25.2219 3.87037 25.4459L3.86637 25.4229C3.92237 25.6419 3.95437 25.8939 3.95437 26.1529C3.95437 26.3229 3.94037 26.4899 3.91337 26.6529L3.91537 26.6349C3.74837 26.9479 3.65137 27.3199 3.65137 27.7149C3.65137 27.9929 3.69937 28.2589 3.78837 28.5059L3.78337 28.4899C4.05637 28.8779 4.46937 29.1519 4.94737 29.2389L4.95837 29.2409C6.23237 29.3479 7.40937 29.6139 8.51937 30.0209L8.42537 29.9909C9.12337 30.4059 9.96437 30.6509 10.8614 30.6509C11.1554 30.6509 11.4434 30.6249 11.7234 30.5739L11.6944 30.5779C12.3614 30.4269 12.9054 29.9919 13.1984 29.4089L13.2044 29.3959C13.9384 29.3919 14.7414 29.0599 16.0284 28.9789C16.9014 28.9069 17.9954 29.3129 19.2484 29.2289C19.2854 29.3879 19.3344 29.5269 19.3964 29.6579L19.3904 29.6449L19.3944 29.6489C19.7784 30.4529 20.5844 30.9989 21.5184 30.9989C21.5994 30.9989 21.6794 30.9949 21.7584 30.9869L21.7484 30.9879C22.8994 30.8179 23.8874 30.2199 24.5614 29.3649L24.5684 29.3559C25.4114 28.5879 26.3954 27.9549 27.4734 27.5029L27.5404 27.4779C27.9724 27.2869 28.2824 26.8929 28.3504 26.4189L28.3514 26.4119C28.2924 25.7179 27.9594 25.1129 27.4634 24.6959L27.4594 24.6929V24.5719L27.4554 24.5679C27.2414 24.2379 27.0914 23.8459 27.0344 23.4259L27.0324 23.4109C26.9794 22.8979 26.7544 22.4449 26.4174 22.1039H26.4134C26.3394 22.0369 26.2594 22.0199 26.1784 21.9349C26.1124 21.8879 26.0304 21.8589 25.9414 21.8549C26.1364 21.2529 26.2484 20.5609 26.2484 19.8419C26.2484 18.9019 26.0554 18.0069 25.7074 17.1949L25.7244 17.2389C25.0204 15.5669 24.1054 14.1279 22.9924 12.8699L23.0064 12.8869C21.9014 11.8049 21.1784 10.3359 21.0584 8.69991L21.0574 8.67891C21.0904 5.98991 21.3524 1.01491 16.6284 1.00791L16.6304 1.00391Z" fill="white"/>
</svg>
