<svg width="34" height="34" viewBox="0 0 34 34" fill="none" xmlns="http://www.w3.org/2000/svg">
<path d="M16.9996 3.77783C19.4394 3.77783 21.6824 4.38779 23.7287 5.60769C25.7357 6.78825 27.3294 8.40167 28.51 10.448C29.6512 12.4549 30.2218 14.6389 30.2218 17.0001C30.2218 19.4399 29.6315 21.6829 28.451 23.7292C27.231 25.7362 25.6176 27.3299 23.6107 28.5105C21.5644 29.6517 19.3607 30.2223 16.9996 30.2223C14.5597 30.2223 12.3364 29.632 10.3294 28.4514C8.28313 27.2315 6.68938 25.6181 5.54818 23.6112C4.36762 21.5649 3.77734 19.3612 3.77734 17.0001C3.77734 14.5602 4.3873 12.3369 5.6072 10.3299C6.78776 8.28362 8.40119 6.68987 10.4475 5.54867C12.4544 4.36811 14.6385 3.77783 16.9996 3.77783ZM16.0551 6.78825C14.5991 7.26047 13.5366 8.59843 12.8676 10.8021C13.9301 11.0776 14.9926 11.2547 16.0551 11.3334V6.78825ZM17.944 11.3334C19.0065 11.2547 20.069 11.0776 21.1315 10.8021C20.4625 8.59843 19.4 7.26047 17.944 6.78825V11.3334ZM21.6628 7.67366C22.1743 8.4607 22.5679 9.30677 22.8433 10.2119C23.4729 9.89704 23.9452 9.64126 24.26 9.4445C23.5123 8.77552 22.6466 8.18524 21.6628 7.67366ZM11.1558 10.2119C11.4706 9.26741 11.8641 8.42135 12.3364 7.67366C11.3919 8.14589 10.5459 8.75584 9.79818 9.50353L11.1558 10.2119ZM27.3294 16.0556C27.2114 14.2061 26.6014 12.4943 25.4996 10.9202C24.7125 11.4318 24.0042 11.8056 23.3746 12.0417C23.65 13.3403 23.8074 14.6783 23.8468 16.0556H27.3294ZM10.6246 12.0417C10.0343 11.8056 9.34563 11.4318 8.55859 10.9202C7.49609 12.4156 6.86646 14.1274 6.6697 16.0556H10.1523C10.1917 14.6783 10.3491 13.3403 10.6246 12.0417ZM16.0551 13.2223C14.7172 13.1042 13.4972 12.9075 12.3954 12.632C12.1986 13.6551 12.0806 14.7963 12.0412 16.0556H16.0551V13.2223ZM21.9579 16.0556C21.9185 14.7963 21.8005 13.6551 21.6037 12.632C20.5019 12.9075 19.282 13.1042 17.944 13.2223V16.0556H21.9579ZM6.6697 17.9445C6.86646 19.8727 7.49609 21.5845 8.55859 23.0799C9.10952 22.6864 9.79818 22.3126 10.6246 21.9584C10.3491 20.6598 10.1917 19.3218 10.1523 17.9445H6.6697ZM12.0412 17.9445C12.0806 19.2038 12.1986 20.345 12.3954 21.3681C13.4972 21.0926 14.7172 20.8959 16.0551 20.7778V17.9445H12.0412ZM17.944 20.7778C19.282 20.8959 20.5019 21.0926 21.6037 21.3681C21.8005 20.345 21.9185 19.2038 21.9579 17.9445H17.944V20.7778ZM23.3746 21.9584C23.9648 22.1945 24.6535 22.5683 25.4405 23.0799C26.503 21.5845 27.1327 19.8727 27.3294 17.9445H23.8468C23.8074 19.3218 23.65 20.6598 23.3746 21.9584ZM17.944 27.2119C19.4 26.7396 20.4625 25.4017 21.1315 23.198C20.069 22.9225 19.0065 22.7454 17.944 22.6667V27.2119ZM16.0551 22.6667C14.9926 22.7454 13.9301 22.9225 12.8676 23.198C13.5366 25.4017 14.5991 26.7396 16.0551 27.2119V22.6667ZM11.1558 23.7882C10.6442 23.985 10.1917 24.2211 9.79818 24.4966C10.5459 25.2049 11.3723 25.7952 12.2773 26.2674C11.7658 25.4017 11.3919 24.5753 11.1558 23.7882ZM22.8433 23.7882C22.5679 24.6933 22.1743 25.5197 21.6628 26.2674C22.5679 25.8739 23.4139 25.2836 24.201 24.4966L22.8433 23.7882Z" fill="white"/>
</svg>
