<svg width="51" height="35" viewBox="0 0 51 35" fill="none" xmlns="http://www.w3.org/2000/svg">
<path d="M40.222 22.1304C39.7672 22.3216 39.3146 22.4172 38.8556 22.4172C38.1289 22.4172 37.4744 22.2919 36.8942 22.039C36.3354 21.802 35.835 21.4459 35.428 20.9956C35.0306 20.5515 34.7225 20.033 34.51 19.4337C34.2975 18.8345 34.1934 18.1885 34.1934 17.4979C34.1934 16.786 34.2996 16.1315 34.51 15.5216C34.7225 14.9117 35.0243 14.3826 35.4216 13.9342C35.8263 13.4761 36.3269 13.1126 36.8879 12.8696C37.5069 12.6032 38.1754 12.4707 38.8492 12.4807C39.338 12.4807 39.8076 12.5572 40.2602 12.7017C40.715 12.8484 41.1273 13.0651 41.4949 13.3477C41.8625 13.6304 42.1664 13.9831 42.4023 14.4017C42.6472 14.8446 42.7963 15.334 42.84 15.8382H40.8531C40.7278 15.3091 40.4898 14.9096 40.137 14.644C39.7636 14.371 39.3094 14.2311 38.8471 14.2466C38.3775 14.2466 37.9801 14.338 37.6529 14.5186C37.3256 14.6992 37.0579 14.9415 36.856 15.2496C36.6541 15.5577 36.5033 15.9041 36.4119 16.293C36.3205 16.6819 36.2716 17.0835 36.2716 17.5021C36.2716 17.8995 36.3163 18.2884 36.4119 18.6666C36.5033 19.0449 36.6541 19.3827 36.856 19.6845C37.0579 19.9862 37.3256 20.2285 37.6529 20.4112C37.9801 20.594 38.3796 20.6832 38.8471 20.6832C39.5378 20.6832 40.0732 20.5069 40.4494 20.1584C40.8276 19.8099 41.0444 19.3062 41.1103 18.6411H39.0129V17.075H42.9909V22.2026H41.6649L41.4524 21.1295C41.137 21.5652 40.7127 21.9103 40.222 22.1304ZM46.376 12.7187V20.4367H51V22.1962H44.2956V12.7187H46.376ZM5.91813 17.4979C5.91813 15.9912 6.647 14.5739 7.93263 13.3286L10.2893 22.2982H11.9127L14.1971 14.1914L16.4496 22.2982H18.0774L20.8845 11.9792H19.057L17.2274 19.8949L15.0195 11.9771H13.345L11.1371 19.8927L9.35213 12.1747C12.5162 9.99662 17.5716 8.58349 23.2666 8.58349C28.6046 8.58349 33.3901 9.70761 36.5712 11.6541C33.1032 8.39224 26.8706 6.10362 19.7519 6.09937C8.84213 6.09937 0 11.2015 0 17.4979C0 23.7942 8.84213 28.9027 19.7476 28.9027C26.8409 28.9027 33.0523 26.6184 36.5351 23.3777C33.354 25.3136 28.5855 26.4122 23.2666 26.4122C13.6829 26.4101 5.91813 22.4236 5.91813 17.4979ZM25.4554 16.3227C25.2144 15.9759 24.8899 15.6952 24.5119 15.5067C24.0997 15.3093 23.6471 15.211 23.1901 15.2199C22.6355 15.2199 22.1361 15.3197 21.7026 15.5174C21.2952 15.7041 20.9388 15.9861 20.6635 16.3397C20.145 17.0006 19.873 17.9335 19.873 19.0364C19.873 19.5251 19.9431 19.9884 20.0791 20.4027C20.2067 20.8039 20.4126 21.1759 20.6848 21.4971C21.2394 22.1431 22.0299 22.4852 22.9734 22.4852C23.4685 22.4852 23.8701 22.4342 24.208 22.328C24.5013 22.2366 24.6967 22.1155 24.8582 22.0114C25.2535 21.748 25.5776 21.391 25.8018 20.9722C25.993 20.6195 26.0886 20.2859 26.1099 20.1159L26.1247 19.999H24.7796L24.7754 20.0946C24.7393 20.5324 24.1655 21.3144 23.1413 21.3144C21.6793 21.3144 21.3308 20.2561 21.3053 19.3232H26.2055V19.217C26.2121 18.6691 26.1515 18.1224 26.0249 17.5892C25.9121 17.1365 25.7193 16.7075 25.4554 16.3227ZM23.035 16.429C24.1188 16.429 24.6989 17.0134 24.8051 18.214H21.2968C21.3499 17.2407 22.1213 16.429 23.035 16.429ZM32.9757 17.3109C32.8554 16.9139 32.6623 16.5428 32.4062 16.2165C32.156 15.9046 31.8386 15.6533 31.4776 15.4812C31.0876 15.3005 30.6622 15.209 30.2324 15.2135C29.8398 15.2115 29.4526 15.3048 29.104 15.4855C28.8209 15.6316 28.5707 15.8341 28.3688 16.0805V12.9142H27.0279V22.2919H28.3029V21.6522C28.429 21.8203 28.5802 21.9679 28.7512 22.09C29.1146 22.3514 29.563 22.4831 30.0815 22.4831C30.6404 22.4831 31.1461 22.3577 31.569 22.1091C31.9472 21.8881 32.2702 21.5694 32.521 21.1656C32.7543 20.7821 32.923 20.3628 33.0204 19.9246C33.118 19.5045 33.1672 19.0746 33.167 18.6432C33.1749 18.1917 33.1104 17.7419 32.9757 17.3109ZM31.7709 18.8345C31.7709 19.5697 31.6242 20.186 31.3416 20.6195C31.2076 20.838 31.0179 21.0171 30.7921 21.1384C30.5662 21.2598 30.3122 21.319 30.056 21.3101C29.2549 21.3101 28.3156 20.7512 28.3156 19.1681C28.3156 18.4116 28.4113 17.8272 28.6025 17.3831C28.8788 16.7435 29.3484 16.4354 30.0284 16.4354C30.7551 16.4354 31.2439 16.718 31.5159 17.3066C31.7411 17.789 31.7709 18.3797 31.7709 18.8345Z" fill="white"/>
</svg>
