<svg width="26" height="26" viewBox="0 0 26 26" fill="none" xmlns="http://www.w3.org/2000/svg">
<g clip-path="url(#clip0_718_1066)">
<path fill-rule="evenodd" clip-rule="evenodd" d="M11.8896 13.5643C11.8961 16.1629 11.904 20.578 11.9105 24.0094C16.6087 24.6447 21.307 25.2997 25.9974 26C25.9974 21.9033 26.0026 17.8246 25.9974 13.9268C21.2952 13.9268 16.5944 13.5643 11.8896 13.5643ZM0 13.5656V22.3882C3.54356 22.8663 7.08712 23.3233 10.6242 23.8456C10.6307 20.4324 10.6216 17.0182 10.6216 13.6049C7.0806 13.6114 3.54095 13.5539 0 13.5656ZM0 3.69624V12.4941C3.54356 12.5032 7.08712 12.4496 10.6307 12.4535C10.6281 9.04804 10.6281 5.64679 10.6242 2.24136C7.07799 2.68441 3.53183 3.15314 0 3.69624ZM26 12.3132C21.3044 12.3314 16.6087 12.403 11.9105 12.4173C11.9079 8.95598 11.9079 5.49883 11.9105 2.04014C16.5996 1.32423 21.2991 0.650936 25.9974 0C26 4.10574 25.9974 8.20745 26 12.3132Z" fill="white"/>
</g>
<defs>
<clipPath id="clip0_718_1066">
<rect width="26" height="26" fill="white"/>
</clipPath>
</defs>
</svg>
