<svg width="35" height="32" viewBox="0 0 35 32" fill="none" xmlns="http://www.w3.org/2000/svg">
<path d="M4.58556 0.257843C3.08824 1.20821 0 4.72455 0 5.57988V7.10046C0 9.09623 1.77807 10.7118 3.36898 10.7118C5.33422 10.7118 6.92513 9.09623 6.92513 7.1955C6.92513 9.09623 8.51604 10.7118 10.4813 10.7118C12.3529 10.7118 13.8503 9.09623 13.8503 7.1955C13.8503 9.09623 15.5348 10.7118 17.5 10.7118C19.4652 10.7118 21.1497 9.09623 21.1497 7.1955C21.1497 9.09623 22.6471 10.7118 24.5187 10.7118C26.484 10.7118 28.0749 9.09623 28.0749 7.1955C28.0749 9.09623 29.6658 10.7118 31.631 10.7118C33.2219 10.7118 35 9.09623 35 7.10046V5.57988C35 4.72455 31.9118 1.20821 30.4144 0.257843C21.8081 -0.0859476 13.1919 -0.0859476 4.58556 0.257843ZM13.8503 9.85652L13.1952 10.7118C12.7582 11.1613 12.2245 11.5018 11.636 11.7065C11.0476 11.9112 10.4205 11.9746 9.80386 11.8917C9.18724 11.8089 8.59793 11.5819 8.08221 11.2288C7.56649 10.8757 7.1384 10.406 6.83155 9.85652L6.17647 10.7118C5.42781 11.4721 4.3984 11.9473 3.2754 11.9473L2.90107 11.8523L2.7139 16.224V17.9346C2.7139 21.3559 2.33957 29.1489 4.21123 31.0496C7.01872 31.7149 12.2594 32 17.5 32C22.7406 32 27.9813 31.7149 30.7888 31.0496C32.6604 29.1489 32.2861 21.3559 32.2861 17.9346V16.224L32.0989 11.8523L31.7246 11.9473C30.6016 11.9473 29.5722 11.4721 28.8235 10.7118L28.1685 9.85652L27.5134 10.7118C27.0763 11.1613 26.5427 11.5018 25.9542 11.7065C25.3658 11.9112 24.7387 11.9746 24.122 11.8917C23.5054 11.8089 22.9161 11.5819 22.4004 11.2288C21.8847 10.8757 21.4566 10.406 21.1497 9.85652C20.7966 10.4973 20.28 11.0297 19.6543 11.3976C19.0285 11.7655 18.3166 11.9554 17.5936 11.9473H17.5H17.4064C16.6834 11.9554 15.9715 11.7655 15.3457 11.3976C14.72 11.0297 14.2034 10.4973 13.8503 9.85652ZM10.9492 13.658C12.0722 13.658 13.1016 13.658 14.4118 15.0835L17.5 14.8934L20.5882 15.0835C21.8984 13.658 22.9278 13.658 24.0508 13.658C24.6123 13.658 26.7647 13.658 28.262 18.0296L29.9465 24.0169C31.1631 28.3886 29.5722 28.4837 27.5134 28.4837C24.6123 28.3886 22.9278 26.2028 22.9278 24.0169C19.301 24.6051 15.6054 24.6051 11.9786 24.0169C12.0722 26.2028 10.3877 28.3886 7.48663 28.4837C5.42781 28.4837 3.8369 28.3886 5.05348 24.0169L6.73797 18.0296C8.23529 13.658 10.3877 13.658 10.9492 13.658ZM17.5 17.0793C17.5 17.0793 14.4118 20.0254 13.8503 21.0708L15.9091 20.9758V22.7815H19.0909V20.9758L21.1497 21.0708C20.5882 20.0254 17.5 17.0793 17.5 17.0793Z" fill="white" fill-opacity="0.8"/>
</svg>
