<svg width="35" height="35" viewBox="0 0 35 35" fill="none" xmlns="http://www.w3.org/2000/svg">
<g opacity="0.8">
<path d="M0 4.9C0 2.1938 2.1938 0 4.9 0H30.1C32.8062 0 35 2.1938 35 4.9V30.1C35 32.8062 32.8062 35 30.1 35H4.9C2.1938 35 0 32.8062 0 30.1V4.9Z" fill="white"/>
<path d="M12.6 9.45C12.6 11.1897 11.1897 12.6 9.45 12.6C7.7103 12.6 6.3 11.1897 6.3 9.45C6.3 7.7103 7.7103 6.3 9.45 6.3C11.1897 6.3 12.6 7.7103 12.6 9.45Z" fill="black"/>
<path d="M7 14.7C7 14.3134 7.3134 14 7.7 14H11.2C11.5866 14 11.9 14.3134 11.9 14.7V28C11.9 28.3866 11.5866 28.7 11.2 28.7H7.7C7.3134 28.7 7 28.3866 7 28V14.7Z" fill="black"/>
<path d="M14.7 14L17.85 14C18.2366 14 18.55 14.3134 18.55 14.7V15.4C19.95 13.65 22.5167 13.5333 23.8 13.65C27.8008 14.0137 28.4667 18.0833 28.35 20.3L28.35 28C28.35 28.3866 28.0366 28.7 27.65 28.7L24.5 28.7C24.1134 28.7 23.8 28.3866 23.8 28V20.3C23.6833 19.3667 23.03 17.5 21.35 17.5C19.67 17.5 18.6667 19.6 18.55 20.3V28C18.55 28.3866 18.2366 28.7 17.85 28.7L14.7 28.7C14.3134 28.7 14 28.3866 14 28V14.7C14 14.3134 14.3134 14 14.7 14Z" fill="black"/>
</g>
</svg>
