<svg width="40" height="36" viewBox="0 0 40 36" fill="none" xmlns="http://www.w3.org/2000/svg">
<path d="M20.0048 11.52L13.7121 0.61312C13.921 0.404194 14.1614 0.267156 14.4018 0.175049C12.5461 0.774869 11.6946 2.82145 11.6946 2.82145L0.198813 22.7413C0.0370577 23.3658 -0.00787802 23.9297 0.0123413 24.4262H12.5596L20.0048 11.52Z" fill="#34A853"/>
<path d="M20.002 11.52L27.4472 24.4262H39.9944C40.0146 23.9297 39.9697 23.3658 39.8079 22.7413L28.3121 2.82145C28.3121 2.82145 27.4584 0.774869 25.605 0.175049C25.8431 0.267156 26.0857 0.404194 26.2947 0.61312L20.002 11.52Z" fill="#FBBC05"/>
<path d="M20.0037 11.5201L26.2964 0.613248C26.0874 0.404322 25.8448 0.267284 25.6067 0.175177C25.3326 0.0875627 25.0383 0.0291534 24.7193 0.0134277H24.3868H15.6205H15.288C14.9713 0.0269068 14.6747 0.0853161 14.4006 0.175177C14.1625 0.267284 13.9199 0.404322 13.7109 0.613248L20.0037 11.5201Z" fill="#188038"/>
<path d="M12.5619 24.4263L6.34103 35.2096C6.34103 35.2096 6.13434 35.1107 5.85352 34.9063C6.73643 35.5735 7.59463 35.715 7.59463 35.715H32.0264C33.3743 35.715 33.6552 35.2096 33.6552 35.2096C33.6596 35.2073 33.6619 35.2051 33.6664 35.2028L27.4501 24.4263H12.5619Z" fill="#4285F4"/>
<path d="M12.5609 24.4263H0.0136719C0.0765766 25.891 0.723597 26.7469 0.723597 26.7469L1.19538 27.5512C1.22908 27.5984 1.2493 27.6253 1.2493 27.6253L2.276 29.3956L4.581 33.336C4.6484 33.4955 4.72703 33.6415 4.81016 33.7808C4.84161 33.8279 4.87081 33.8796 4.90451 33.9245C4.9135 33.938 4.92248 33.9515 4.93147 33.965C5.21679 34.3604 5.53581 34.6659 5.85482 34.9063C6.13565 35.113 6.34234 35.2096 6.34234 35.2096L12.5609 24.4263Z" fill="#1967D2"/>
<path d="M27.4512 24.4263H39.9984C39.9355 25.891 39.2885 26.7469 39.2885 26.7469L38.8167 27.5512C38.783 27.5984 38.7628 27.6253 38.7628 27.6253L37.7361 29.3956L35.4311 33.336C35.3637 33.4955 35.2851 33.6415 35.2019 33.7808C35.1705 33.8279 35.1413 33.8796 35.1076 33.9245C35.0986 33.938 35.0896 33.9515 35.0806 33.965C34.7953 34.3604 34.4763 34.6659 34.1573 34.9063C33.8764 35.113 33.6698 35.2096 33.6698 35.2096L27.4512 24.4263Z" fill="#EA4335"/>
</svg>
