<svg width="50" height="50" viewBox="0 0 50 50" fill="none" xmlns="http://www.w3.org/2000/svg">
<path d="M10.3696 7.41577C8.643 8.44096 5.24125 12.3489 5.20898 13.3738V15.0702C5.20898 17.2206 7.21903 19.1106 9.04404 19.1106C11.2354 19.1106 13.0612 17.2945 13.0614 15.139C13.0614 17.2945 14.8246 19.1106 17.0161 19.1106C19.2078 19.1106 20.9144 17.2945 20.9144 15.139C20.9144 17.2945 22.7893 19.1106 24.9808 19.1106H25.0205C27.2122 19.1106 29.087 17.2945 29.087 15.139C29.087 17.2945 30.7938 19.1106 32.9852 19.1106C35.1767 19.1106 36.9399 17.2945 36.9399 15.139C36.9399 17.2945 38.7661 19.1106 40.9573 19.1106C42.7823 19.1106 44.7923 17.2209 44.7923 15.0702V13.3738C44.7601 12.3488 41.3583 8.44064 39.632 7.41577C34.2656 7.22735 30.5452 7.19476 25.0005 7.19557C19.4559 7.19606 11.8971 7.28268 10.3696 7.41577ZM20.8867 18.0979C20.6771 18.4631 20.4176 18.7974 20.1156 19.0908C19.2883 19.8997 18.1544 20.401 16.9043 20.401C15.7014 20.4022 14.546 19.9315 13.6863 19.0902C13.3866 18.7966 13.1588 18.4826 12.9502 18.1171L12.9493 18.1177C12.7408 18.4839 12.4505 18.7977 12.1501 19.0916C11.29 19.9323 10.1348 20.4026 8.93208 20.4015C8.78141 20.4015 8.62461 20.3599 8.49781 20.3163C8.32165 22.1509 8.24728 23.9041 8.22098 25.1824L8.22066 25.1897C8.21744 25.8388 8.21421 26.3726 8.21098 27.1142C8.24486 30.9633 7.82978 39.5897 9.90807 41.7093C13.1287 42.4602 19.0549 42.8022 25.0003 42.8043C30.9456 42.8022 36.8728 42.4602 40.0934 41.7093C42.1717 39.5895 41.7566 30.9631 41.7905 27.114C41.7869 26.3726 41.784 25.8388 41.7808 25.1895L41.7803 25.1822C41.7542 23.9036 41.6798 22.1505 41.5037 20.316C41.3769 20.3596 41.2202 20.4012 41.0694 20.4012C39.8667 20.4023 38.7114 19.932 37.8514 19.0913C37.551 18.7974 37.2606 18.4838 37.052 18.1174L37.0511 18.1168C36.8423 18.4823 36.6147 18.7964 36.315 19.0898C35.4553 19.9311 34.3 20.4017 33.0971 20.4006C31.8472 20.4006 30.7131 19.8989 29.8859 19.0902C29.5839 18.7967 29.3243 18.4625 29.1148 18.0972C28.9075 18.4621 28.6503 18.7963 28.3508 19.0902C27.4909 19.9314 26.3354 20.4019 25.1325 20.4007C25.0889 20.4007 25.0453 20.3988 25.0018 20.3975H25.0007C24.9571 20.3988 24.9135 20.4007 24.8695 20.4007C23.6666 20.4019 22.5111 19.9315 21.6512 19.0903C21.3516 18.7964 21.094 18.4627 20.8867 18.0979ZM17.5819 22.3712L17.5816 22.3728H17.584C18.8928 22.3756 20.0554 22.3728 21.496 23.9451C22.6297 23.8262 23.8145 23.7668 25.0002 23.7686C26.1859 23.767 27.3716 23.8262 28.5055 23.9451C29.9461 22.3727 31.1087 22.3754 32.4175 22.3728H32.4197L32.4194 22.3712C33.0378 22.3712 35.5113 22.3712 37.2348 27.212L39.0861 33.8527C40.458 38.7929 38.6468 38.9138 36.3877 38.9181C33.0374 38.7934 31.1824 36.3604 31.1824 33.9277C29.3279 34.2316 27.1644 34.3836 25.001 34.3837C22.8374 34.3837 20.6729 34.2316 18.8186 33.9277C18.8186 36.3604 16.9634 38.7934 13.6133 38.9181C11.3541 38.9138 9.54316 38.7931 10.915 33.8527L12.7668 27.2121C14.4904 22.3714 16.9635 22.3712 17.5819 22.3712ZM25.0002 26.1755C24.9969 26.1787 21.4732 29.4157 20.8397 30.5668L23.1472 30.4743V32.4866C23.1472 32.5808 24.0732 32.5424 25.0002 32.4995C25.9268 32.5424 26.8539 32.5808 26.8539 32.4866V30.4743L29.1614 30.5668C28.5277 29.4157 25.001 26.1764 25.001 26.1764L25.0002 26.1755Z" fill="#F95252"/>
</svg>
