<svg width="45" height="45" viewBox="0 0 45 45" fill="none" xmlns="http://www.w3.org/2000/svg">
<path d="M9.33206 6.67427C7.77811 7.59694 4.71654 11.1141 4.6875 12.0365V13.5633C4.6875 15.4986 6.49654 17.1997 8.13905 17.1997C10.1113 17.1997 11.7545 15.5651 11.7547 13.6251C11.7547 15.5651 13.3416 17.1997 15.3139 17.1997C17.2865 17.1997 18.8224 15.5651 18.8224 13.6251C18.8224 15.5651 20.5098 17.1997 22.4821 17.1997H22.5179C24.4904 17.1997 26.1777 15.5651 26.1777 13.6251C26.1777 15.5651 27.7138 17.1997 29.6861 17.1997C31.6584 17.1997 33.2453 15.5651 33.2453 13.6251C33.2453 15.5651 34.8889 17.1997 36.861 17.1997C38.5035 17.1997 40.3125 15.4989 40.3125 13.5633V12.0365C40.2835 11.114 37.2219 7.59665 35.6682 6.67427C30.8384 6.50469 27.4901 6.47536 22.4999 6.47609C17.5098 6.47652 10.7068 6.55449 9.33206 6.67427ZM18.7974 16.2882C18.6088 16.6169 18.3752 16.9177 18.1034 17.1818C17.3589 17.9098 16.3384 18.361 15.2133 18.361C14.1307 18.362 13.0909 17.9384 12.3171 17.1812C12.0474 16.917 11.8424 16.6344 11.6546 16.3054L11.6538 16.306C11.4662 16.6356 11.2048 16.918 10.9345 17.1825C10.1605 17.9392 9.12073 18.3624 8.03829 18.3614C7.90268 18.3614 7.76156 18.324 7.64744 18.2848C7.4889 19.9359 7.42197 21.5138 7.3983 22.6642L7.39801 22.6708C7.39511 23.255 7.3922 23.7354 7.3893 24.4028C7.41979 27.867 7.04622 35.6308 8.91667 37.5384C11.8152 38.2143 17.1488 38.5221 22.4997 38.524C27.8505 38.5221 33.1849 38.2143 36.0835 37.5384C37.9539 35.6307 37.5804 27.8669 37.6109 24.4027C37.6077 23.7354 37.605 23.255 37.6021 22.6706L37.6017 22.6641C37.5782 21.5133 37.5112 19.9356 37.3527 18.2845C37.2386 18.3237 37.0976 18.3612 36.9619 18.3612C35.8794 18.3621 34.8397 17.9389 34.0657 17.1822C33.7953 16.9177 33.534 16.6355 33.3463 16.3057L33.3454 16.3052C33.1575 16.6341 32.9526 16.9168 32.6829 17.1809C31.9092 17.9381 30.8694 18.3616 29.7868 18.3606C28.6619 18.3606 27.6412 17.909 26.8967 17.1812C26.6249 16.9171 26.3913 16.6163 26.2027 16.2876C26.0162 16.616 25.7847 16.9167 25.5151 17.1812C24.7412 17.9383 23.7013 18.3618 22.6186 18.3607C22.5794 18.3607 22.5402 18.359 22.501 18.3578H22.5C22.4608 18.359 22.4216 18.3607 22.382 18.3607C21.2993 18.3618 20.2594 17.9384 19.4855 17.1814C19.2159 16.9169 18.984 16.6165 18.7974 16.2882ZM15.8231 20.1342L15.8228 20.1356H15.825C17.0029 20.1381 18.0493 20.1356 19.3458 21.5506C20.3662 21.4436 21.4324 21.3902 22.4996 21.3918C23.5667 21.3904 24.6338 21.4436 25.6544 21.5506C26.9509 20.1355 27.9972 20.138 29.1752 20.1356H29.1772L29.1769 20.1342C29.7334 20.1342 31.9596 20.1342 33.5107 24.4908L35.1769 30.4675C36.4116 34.9137 34.7816 35.0225 32.7484 35.0264C29.7331 34.9142 28.0636 32.7244 28.0636 30.535C26.3945 30.8085 24.4474 30.9453 22.5003 30.9454C20.553 30.9454 18.6051 30.8085 16.9361 30.535C16.9361 32.7244 15.2665 34.9142 12.2513 35.0264C10.2181 35.0225 8.58826 34.9139 9.82293 30.4675L11.4895 24.491C13.0407 20.1343 15.2666 20.1342 15.8231 20.1342ZM22.4996 23.558C22.4967 23.5609 19.3253 26.4742 18.7552 27.5102L20.8319 27.427V29.238C20.8319 29.3228 21.6653 29.2883 22.4996 29.2497C23.3335 29.2883 24.1679 29.3228 24.1679 29.238V27.427L26.2447 27.5102C25.6744 26.4742 22.5003 23.5589 22.5003 23.5589L22.4996 23.558Z" fill="#F95252"/>
</svg>
