<svg width="48" height="48" viewBox="0 0 48 48" fill="none" xmlns="http://www.w3.org/2000/svg">
<rect width="48" height="48" rx="10" fill="#444444"/>
<path d="M36.1586 10.502H10.4901C8.43854 10.502 6.77539 12.1652 6.77539 14.2168V31.12C6.77539 33.1716 8.43854 34.8348 10.4901 34.8348H36.1586C38.2102 34.8348 39.8734 33.1716 39.8734 31.12V14.2168C39.8734 12.1652 38.2102 10.502 36.1586 10.502Z" stroke="white" stroke-width="2.275" stroke-miterlimit="10"/>
<path d="M15.9687 31V13.7863H22.0667C28.1807 13.7863 31.2378 16.5832 31.2378 22.1771C31.2378 24.8579 30.4015 26.9987 28.7289 28.5992C27.0644 30.1997 24.8436 31 22.0667 31H15.9687ZM19.846 16.9433V27.855H21.7666C23.4472 27.855 24.7636 27.3508 25.7159 26.3424C26.6762 25.3341 27.1564 23.9617 27.1564 22.2251C27.1564 20.5845 26.6802 19.2961 25.7279 18.3598C24.7836 17.4155 23.4552 16.9433 21.7426 16.9433H19.846Z" fill="white"/>
<path d="M24.1999 36H22.4564C22.2043 36 22 36.2043 22 36.4564V38.8393C22 39.0914 22.2043 39.2957 22.4564 39.2957H24.1999C24.4519 39.2957 24.6562 39.0914 24.6562 38.8393V36.4564C24.6562 36.2043 24.4519 36 24.1999 36Z" fill="white"/>
<path d="M23.4663 41.5C27.5898 41.5 30.9325 41.1642 30.9325 40.75C30.9325 40.3358 27.5898 40 23.4663 40C19.3428 40 16 40.3358 16 40.75C16 41.1642 19.3428 41.5 23.4663 41.5Z" stroke="white" stroke-width="1.81661" stroke-miterlimit="10"/>
<path d="M35.8694 5.91943H32.7982C32.3476 5.91943 31.9824 6.28466 31.9824 6.73518V9.05893C31.9824 9.50946 32.3476 9.87468 32.7982 9.87468H35.8694C36.3199 9.87468 36.6852 9.50946 36.6852 9.05893V6.73518C36.6852 6.28466 36.3199 5.91943 35.8694 5.91943Z" stroke="white" stroke-width="1.625" stroke-miterlimit="10"/>
<path d="M41.697 3.23175H39.721C39.3692 3.23175 39.084 3.51695 39.084 3.86875V5.5815C39.084 5.93331 39.3692 6.2185 39.721 6.2185H41.697C42.0488 6.2185 42.334 5.93331 42.334 5.5815V3.86875C42.334 3.51695 42.0488 3.23175 41.697 3.23175Z" stroke="white" stroke-width="0.975" stroke-miterlimit="10"/>
<path d="M41.9119 7.70697H41.2229C40.8711 7.70697 40.5859 7.99217 40.5859 8.34397V9.03297C40.5859 9.38478 40.8711 9.66997 41.2229 9.66997H41.9119C42.2637 9.66997 42.5489 9.38478 42.5489 9.03297V8.34397C42.5489 7.99217 42.2637 7.70697 41.9119 7.70697Z" stroke="white" stroke-width="0.65" stroke-miterlimit="10"/>
</svg>
