<svg width="73" height="73" viewBox="0 0 73 73" fill="none" xmlns="http://www.w3.org/2000/svg">
<path d="M54.7206 12.272H19.1796C16.339 12.272 14.0361 14.5748 14.0361 17.4155V40.82C14.0361 43.6606 16.339 45.9635 19.1796 45.9635H54.7206C57.5613 45.9635 59.8641 43.6606 59.8641 40.82V17.4155C59.8641 14.5748 57.5613 12.272 54.7206 12.272Z" stroke="white" stroke-width="3.15" stroke-miterlimit="10"/>
<path d="M27 40.3025V18.1175H35.037C43.0965 18.1175 47.124 21.722 47.124 28.931C47.124 32.387 46.026 35.1455 43.8255 37.2065C41.625 39.2675 38.6955 40.3025 35.037 40.3025H27ZM32.1075 22.19V36.2525H34.6365C36.8505 36.2525 38.5875 35.6045 39.8475 34.304C41.1075 33.0035 41.7375 31.235 41.7375 28.9985C41.7375 26.8835 41.112 25.223 39.861 24.008C38.61 22.7975 36.8595 22.19 34.6005 22.19H32.103H32.1075Z" fill="white"/>
<path d="M38.3403 46.418H35.4693C35.0542 46.418 34.7178 46.7545 34.7178 47.1695V51.0935C34.7178 51.5086 35.0542 51.845 35.4693 51.845H38.3403C38.7553 51.845 39.0918 51.5086 39.0918 51.0935V47.1695C39.0918 46.7545 38.7553 46.418 38.3403 46.418Z" fill="white"/>
<path d="M37.0852 54.032C44.2353 54.032 50.0317 53.4497 50.0317 52.7315C50.0317 52.0132 44.2353 51.431 37.0852 51.431C29.935 51.431 24.1387 52.0132 24.1387 52.7315C24.1387 53.4497 29.935 54.032 37.0852 54.032Z" stroke="white" stroke-width="3.15" stroke-miterlimit="10"/>
<path d="M22.5183 45.9635C17.2803 51.818 17.1813 54.455 17.8473 55.778C20.1288 60.3005 36.8283 60.17 46.1883 58.928C48.1953 58.6625 52.4703 57.9965 54.3288 60.287C55.3323 61.52 55.5618 63.5315 54.7833 64.886C53.7753 66.632 51.2778 66.9695 46.3413 66.9965C42.5658 67.019 37.4043 66.8615 31.1898 66.092" stroke="white" stroke-width="1.8" stroke-miterlimit="10"/>
<path d="M31.5413 66.234C31.6727 64.0484 27.5559 62.0228 22.3462 61.7096C17.1366 61.3965 12.8068 62.9144 12.6754 65.1C12.544 67.2855 16.6608 69.3112 21.8705 69.6243C27.0802 69.9375 31.4099 68.4196 31.5413 66.234Z" stroke="white" stroke-width="2.25" stroke-miterlimit="10"/>
<path d="M24.6735 61.664C22.7025 63.185 21.8475 64.3325 22.104 65.1155C22.4955 66.2945 25.416 66.641 30.879 66.1505" stroke="white" stroke-width="2.25" stroke-miterlimit="10"/>
<path d="M22.1046 64.6115L21.1416 69.341" stroke="white" stroke-width="2.25" stroke-miterlimit="10"/>
<path d="M54.3195 5.927H50.067C49.4432 5.927 48.9375 6.4327 48.9375 7.0565V10.274C48.9375 10.8978 49.4432 11.4035 50.067 11.4035H54.3195C54.9433 11.4035 55.449 10.8978 55.449 10.274V7.0565C55.449 6.4327 54.9433 5.927 54.3195 5.927Z" stroke="white" stroke-width="2.25" stroke-miterlimit="10"/>
<path d="M62.3885 2.20544H59.6525C59.1654 2.20544 58.7705 2.60033 58.7705 3.08744V5.45894C58.7705 5.94606 59.1654 6.34094 59.6525 6.34094H62.3885C62.8756 6.34094 63.2705 5.94606 63.2705 5.45894V3.08744C63.2705 2.60033 62.8756 2.20544 62.3885 2.20544Z" stroke="white" stroke-width="1.35" stroke-miterlimit="10"/>
<path d="M62.6856 8.40198H61.7316C61.2445 8.40198 60.8496 8.79686 60.8496 9.28398V10.238C60.8496 10.7251 61.2445 11.12 61.7316 11.12H62.6856C63.1727 11.12 63.5676 10.7251 63.5676 10.238V9.28398C63.5676 8.79686 63.1727 8.40198 62.6856 8.40198Z" stroke="white" stroke-width="0.9" stroke-miterlimit="10"/>
</svg>
