<svg width="335" height="335" viewBox="0 0 335 335" fill="none" xmlns="http://www.w3.org/2000/svg">
<path d="M257.306 55.8337H93.8011C80.7327 55.8337 70.1387 66.4278 70.1387 79.4961V187.167C70.1387 200.236 80.7327 210.83 93.8011 210.83H257.306C270.374 210.83 280.968 200.236 280.968 187.167V79.4961C280.968 66.4278 270.374 55.8337 257.306 55.8337Z" stroke="white" stroke-width="4.1404" stroke-miterlimit="10"/>
<path d="M139.615 179.735V88.3152H167.356C202.756 88.3152 220.457 103.179 220.457 132.887C220.457 147.005 215.53 158.329 205.717 166.9C195.883 175.471 182.717 179.756 166.238 179.756H139.615V179.735ZM156.881 102.6V164.292H169.116C179.86 164.292 188.224 161.538 194.227 156.052C200.21 150.566 203.212 142.761 203.212 132.68C203.212 112.619 192.033 102.6 169.695 102.6H156.881Z" stroke="white" stroke-width="4.1404" stroke-miterlimit="10"/>
<path d="M182.303 214.473C182.303 212.564 180.76 211.016 178.856 211.016C176.952 211.016 175.409 212.564 175.409 214.473V232.526C175.409 234.435 176.952 235.983 178.856 235.983C180.76 235.983 182.303 234.435 182.303 232.526V214.473Z" fill="white"/>
<path d="M180.129 247.949C213.023 247.949 239.689 245.27 239.689 241.966C239.689 238.662 213.023 235.983 180.129 235.983C147.235 235.983 120.569 238.662 120.569 241.966C120.569 245.27 147.235 247.949 180.129 247.949Z" stroke="white" stroke-width="6.2106" stroke-miterlimit="10"/>
<path d="M109.163 210.829C85.066 237.762 84.6105 249.894 87.6744 255.98C98.1703 276.786 174.996 276.185 218.056 270.472C227.289 269.25 246.956 266.186 255.506 276.724C260.122 282.396 261.178 291.65 257.597 297.881C252.959 305.913 241.47 307.466 218.76 307.59C201.391 307.694 177.645 306.969 149.056 303.429" stroke="white" stroke-width="4.1404" stroke-miterlimit="10"/>
<path d="M150.665 304.094C151.27 294.039 132.331 284.721 108.364 283.28C84.397 281.839 64.4781 288.822 63.8737 298.877C63.2693 308.932 82.2083 318.25 106.175 319.691C130.142 321.132 150.061 314.149 150.665 304.094Z" stroke="white" stroke-width="4.1404" stroke-miterlimit="10"/>
<path d="M118.26 283.817C108.681 290.049 104.562 294.696 105.903 297.776C107.937 302.413 122.368 303.446 149.237 300.909" stroke="white" stroke-width="4.1404" stroke-miterlimit="10"/>
<path d="M105.831 296.19L100.694 317.645" stroke="white" stroke-width="4.1404" stroke-miterlimit="10"/>
<path d="M256.602 28.5684H241.8C238.93 28.5684 236.604 30.8948 236.604 33.7646V48.5665C236.604 51.4363 238.93 53.7627 241.8 53.7627H256.602C259.471 53.7627 261.798 51.4363 261.798 48.5665V33.7646C261.798 30.8948 259.471 28.5684 256.602 28.5684Z" stroke="white" stroke-width="4.1404" stroke-miterlimit="10"/>
<path d="M292.581 9.54321H279.994C277.753 9.54321 275.937 11.3599 275.937 13.6008V24.5108C275.937 26.7517 277.753 28.5684 279.994 28.5684H292.581C294.822 28.5684 296.639 26.7517 296.639 24.5108V13.6008C296.639 11.3599 294.822 9.54321 292.581 9.54321Z" stroke="white" stroke-width="4.1404" stroke-miterlimit="10"/>
<path d="M293.948 38.03H289.56C287.319 38.03 285.502 39.8467 285.502 42.0876V46.4765C285.502 48.7174 287.319 50.534 289.56 50.534H293.948C296.189 50.534 298.006 48.7174 298.006 46.4765V42.0876C298.006 39.8467 296.189 38.03 293.948 38.03Z" stroke="white" stroke-width="4.1404" stroke-miterlimit="10"/>
<path d="M247.389 64.5493H102.578C89.51 64.5493 78.916 75.1433 78.916 88.2117V178.576C78.916 191.644 89.51 202.238 102.578 202.238H247.389C260.457 202.238 271.051 191.644 271.051 178.576V88.2117C271.051 75.1433 260.457 64.5493 247.389 64.5493Z" stroke="white" stroke-width="4.1404" stroke-miterlimit="10"/>
</svg>
