<svg width="50" height="50" viewBox="0 0 50 50" fill="none" xmlns="http://www.w3.org/2000/svg">
<g opacity="0.8">
<path d="M49.9287 32.3795C49.9287 32.3786 49.9287 32.3777 49.9287 32.3769C49.9279 32.3718 49.9287 32.3684 49.9279 32.3633H49.9271C49.2745 23.706 47.2748 17.2848 44.4634 12.9447C43.056 10.7747 41.4392 9.12488 39.6742 8.01238C37.9117 6.899 35.9976 6.33288 34.0699 6.33464C32.6489 6.33376 31.4347 6.59138 30.4052 6.98025C28.8587 7.56326 27.7335 8.42507 26.854 9.06218C26.415 9.38249 26.0363 9.64431 25.7262 9.80359C25.4126 9.9655 25.1915 10.0222 25 10.0222C24.8703 10.0214 24.7339 9.99773 24.5585 9.9324C24.2543 9.82136 23.8468 9.56794 23.3595 9.21638C22.624 8.69353 21.7105 7.9699 20.5057 7.37595C19.3007 6.78103 17.7941 6.33201 15.93 6.33454C14.0023 6.33279 12.0882 6.89968 10.3257 8.01228C7.67774 9.68406 5.36533 12.5514 3.58662 16.595C1.81074 20.6379 0.560841 25.8711 0.0728526 32.3634H0.0720713C0.0711924 32.3684 0.0720713 32.3727 0.0711924 32.377C0.0711924 32.3778 0.0711924 32.3787 0.0711924 32.3796C0.0237315 32.9083 1.02502e-06 33.4225 1.02502e-06 33.9217C-0.000877881 36.3687 0.563478 38.4583 1.62608 40.0878C2.68525 41.718 4.24942 42.856 6.08057 43.3907C6.7085 43.5755 7.35674 43.6652 8.00996 43.6652C9.90889 43.6627 11.823 42.9213 13.6439 41.6375C15.4683 40.3495 17.218 38.5074 18.8109 36.195C19.5771 35.0791 20.6176 33.7733 21.7394 32.7913C22.2995 32.2999 22.8782 31.8915 23.4349 31.6169C23.9925 31.3415 24.5179 31.2024 25 31.2033C25.482 31.2024 26.0075 31.3414 26.565 31.6169C27.4005 32.0269 28.2826 32.7456 29.0833 33.5809C29.8866 34.4147 30.6136 35.3579 31.189 36.1942C32.7819 38.5075 34.5317 40.3495 36.3552 41.6375C38.177 42.9213 40.091 43.6627 41.9899 43.6652C42.6433 43.6652 43.2915 43.5754 43.9186 43.3907C45.7505 42.856 47.3146 41.718 48.373 40.0878C49.4356 38.4583 50 36.3687 50 33.9217C50 33.4234 49.9763 32.9083 49.9287 32.3795ZM46.5563 38.9023C45.7649 40.109 44.6778 40.9012 43.306 41.3096C42.8831 41.4342 42.4459 41.4952 41.99 41.496C40.6732 41.4985 39.1676 40.9673 37.6059 39.8648C36.0459 38.7658 34.4504 37.1085 32.9752 34.9647C32.1389 33.7521 31.0178 32.3268 29.69 31.161C29.0248 30.578 28.3063 30.0578 27.526 29.6722C26.7472 29.2875 25.8974 29.0342 25 29.0342C24.1026 29.0342 23.2527 29.2875 22.474 29.6722C21.3047 30.2526 20.2692 31.1279 19.3532 32.0761C18.4398 33.0259 17.6509 34.0554 17.0248 34.9647C15.5496 37.1085 13.9531 38.7658 12.394 39.8648C10.8324 40.9672 9.32588 41.4985 8.00986 41.496C7.55313 41.4951 7.1168 41.4342 6.69307 41.3096C5.32197 40.9012 4.23486 40.109 3.44268 38.9023C2.65557 37.6949 2.16924 36.0417 2.16924 33.9217C2.16924 33.487 2.18955 33.0319 2.23272 32.5583V32.5532L2.23359 32.5422C2.86143 24.1271 4.81621 18.0322 7.35576 14.1252C8.62422 12.1695 10.0325 10.7612 11.4823 9.84773C12.9347 8.93435 14.4243 8.50554 15.93 8.50388C17.0917 8.50476 18.0222 8.70808 18.8279 9.01062C20.0346 9.46472 20.9649 10.1587 21.8707 10.8179C22.325 11.1468 22.7724 11.4678 23.2748 11.7297C23.7739 11.9889 24.3518 12.1915 25 12.1915C25.4296 12.1915 25.8355 12.1009 26.1998 11.9644C26.8404 11.722 27.3717 11.3577 27.9012 10.9815C28.6935 10.4121 29.484 9.79597 30.4491 9.32322C31.4143 8.85124 32.5438 8.50642 34.0698 8.50388C35.5755 8.50554 37.0651 8.93435 38.5176 9.84773C40.6918 11.2154 42.7754 13.7083 44.4269 17.4678C46.0792 21.2241 47.2935 26.231 47.7662 32.5421V32.5471L47.7671 32.5582C47.8095 33.031 47.8308 33.4861 47.8308 33.9216C47.8299 36.0417 47.3443 37.6957 46.5563 38.9023Z" fill="white"/>
<path d="M15.7458 17.3951H11.9429V20.8624H8.47559V24.6653H11.9429V28.1327H15.7458V24.6653H19.2131V20.8624H15.7458V17.3951Z" fill="white"/>
<path d="M36.002 16.3088C34.8954 16.3088 33.998 17.2061 33.998 18.3144C33.998 19.422 34.8954 20.3201 36.002 20.3201C37.1104 20.3201 38.0076 19.422 38.0076 18.3144C38.0076 17.2061 37.1103 16.3088 36.002 16.3088Z" fill="white"/>
<path d="M36.002 26.0007C34.8954 26.0007 33.998 26.898 33.998 28.0056C33.998 29.1139 34.8954 30.0112 36.002 30.0112C37.1104 30.0112 38.0076 29.1139 38.0076 28.0056C38.0076 26.898 37.1103 26.0007 36.002 26.0007Z" fill="white"/>
<path d="M40.8475 21.1555C39.7399 21.1555 38.8418 22.0529 38.8418 23.1604C38.8418 24.2687 39.7399 25.1652 40.8475 25.1652C41.9559 25.1652 42.8531 24.2687 42.8531 23.1604C42.8531 22.0529 41.9558 21.1555 40.8475 21.1555Z" fill="white"/>
<path d="M31.158 21.1555C30.0497 21.1555 29.1523 22.0529 29.1523 23.1604C29.1523 24.2687 30.0497 25.1652 31.158 25.1652C32.2655 25.1652 33.1638 24.2687 33.1638 23.1604C33.1637 22.0529 32.2654 21.1555 31.158 21.1555Z" fill="white"/>
</g>
</svg>
