<svg width="40" height="40" viewBox="0 0 40 40" fill="none" xmlns="http://www.w3.org/2000/svg">
<path d="M35.5556 5.55554H4.44444C3.2657 5.55554 2.13524 6.02379 1.30175 6.85729C0.468253 7.69078 0 8.82125 0 9.99999L0 20H40V9.99999C40 8.82125 39.5317 7.69078 38.6983 6.85729C37.8648 6.02379 36.7343 5.55554 35.5556 5.55554Z" fill="#005BBB"/>
<path d="M40 30C40 31.1787 39.5317 32.3092 38.6983 33.1427C37.8648 33.9762 36.7343 34.4444 35.5556 34.4444H4.44444C3.2657 34.4444 2.13524 33.9762 1.30175 33.1427C0.468253 32.3092 0 31.1787 0 30V20H40V30Z" fill="#FFD500"/>
</svg>
