<svg width="40" height="40" viewBox="0 0 40 40" fill="none" xmlns="http://www.w3.org/2000/svg">
<path d="M13.3333 8.45221L3.33333 5.77333C1.49222 5.27999 0 6.37221 0 8.21444V30.4367C0 32.2767 1.49222 34.1689 3.33333 34.6633L13.3333 37.3422V8.45221ZM26.6667 33.77L36.6667 36.4489C38.5067 36.9411 40 35.8489 40 34.0089V11.7867C40 9.94555 38.5067 8.05333 36.6667 7.55999L26.6667 4.8811V33.77Z" fill="#CCD6DD"/>
<path d="M26.6663 33.7689L13.333 37.3411V8.45223L26.6663 4.88V33.7689Z" fill="#E1E8ED"/>
<path d="M13.3338 10.6745L4.44488 8.29225C3.21821 7.96336 2.22266 8.69225 2.22266 9.91891V29.9189C2.22266 31.1456 3.21821 32.4078 4.44488 32.7356L13.3338 35.1189V10.6745ZM35.556 9.48336L26.6671 7.10114V31.5456L35.556 33.9278C36.7827 34.2567 37.7782 33.5289 37.7782 32.3V12.3C37.7782 11.0745 36.7827 9.81225 35.556 9.48336Z" fill="#55ACEE"/>
<path d="M26.6663 31.5467L13.333 35.1189V10.6745L26.6663 7.10223V31.5467Z" fill="#88C9F9"/>
<path d="M13.3335 23.8955C13.0358 23.9022 12.6724 24.0111 12.3947 24.0566C11.9102 24.1377 12.0291 24.6311 11.8802 24.5489C11.5369 24.363 11.231 24.1151 10.978 23.8178C10.6035 23.38 11.2558 23.2877 11.4424 23.1266C11.6291 22.9655 11.0913 22.9355 10.9035 22.7578C10.7158 22.5811 10.3802 22.8733 10.0824 22.4511C9.78243 22.0333 9.97021 21.5733 9.93465 21.14C9.89687 20.7066 10.4191 20.7611 10.7558 20.7689C11.0924 20.7722 11.3535 20.9289 11.3535 21.4378C11.3535 21.9444 11.7647 22.2244 11.6524 21.6C11.5402 20.9766 11.7647 20.87 11.9135 20.6111C12.0624 20.3555 12.3247 20 12.6602 19.4555C12.9058 19.0578 13.0924 19.1411 13.3335 19.2733V15.5566C13.2724 15.5078 13.2113 15.4566 13.1502 15.4311C12.8135 15.2844 13.2569 16.2678 12.9958 16.6633C12.7324 17.0589 12.3313 16.8778 11.918 16.7678C11.508 16.6578 11.1258 16.1622 11.4258 15.6489C11.7235 15.1355 12.2947 15.3511 12.5935 14.9233C12.8924 14.4955 11.5302 14.1766 11.0447 13.8778C10.558 13.5766 9.97465 13.4233 9.4891 13.7155C9.00354 14.0089 7.96354 13.8633 7.55243 13.9222C7.14132 13.9822 7.06799 13.5122 6.99354 13.1522C6.9191 12.7944 6.26799 12.7866 5.59688 12.7766C4.92354 12.7655 3.66243 13.0889 3.87799 14.7311C3.95354 15.3022 4.55021 14.8689 4.66354 14.7711C4.77576 14.6733 5.33576 14.9933 5.4091 15.4789C5.48465 15.9666 5.44799 16.4644 5.2991 16.8478C5.14688 17.2311 5.67243 17.9655 5.97021 18.6389C6.2691 19.3111 6.60687 19.4011 6.75576 19.4422C6.90576 19.4822 7.76465 20.0944 7.72799 20.5489C7.69132 21.0055 8.51243 21.65 8.8491 22.0378C9.18576 22.4266 9.39799 22.7733 9.83465 22.9778C10.2713 23.1811 10.7813 24.1277 11.0058 24.2722C11.178 24.3833 11.4702 24.7733 11.6458 24.9166C11.4147 25.1855 10.9658 25.7478 10.9658 26.06C10.9658 26.4855 11.4547 27.2855 11.6413 27.5044C11.8269 27.7222 12.3635 27.9955 12.4758 28.4489C12.588 28.9011 12.398 30.2778 12.0624 30.5677C11.7247 30.8589 11.6024 31.7266 11.6024 31.7266C11.6024 31.7266 11.7213 32.0522 12.1191 31.8644C12.4624 31.7044 12.9813 31.2355 13.3347 30.9744V23.8955H13.3335Z" fill="#5C913B"/>
<path d="M13.6308 19.3478C13.5197 19.3655 13.423 19.3611 13.333 19.36V15.6433C13.6152 15.7155 13.9019 15.9955 14.1186 16.4611C14.3786 17.0267 14.7897 16.5344 14.9397 16.8767C15.0886 17.2189 15.9119 17.7189 15.5008 17.7011C15.0886 17.6844 14.6775 17.71 14.5663 18.2055C14.453 18.7033 14.753 19.0878 14.453 19.1255C14.153 19.1622 14.0419 19.2833 13.6308 19.3478ZM16.5086 25.5233C16.0241 25.4411 16.1097 25.4978 15.8108 24.8578C15.513 24.2167 15.3319 24.0322 14.6597 24.1289C13.9875 24.2255 14.0119 24.28 13.8252 23.9478C13.7452 23.8055 13.5575 23.8567 13.333 23.9822V31.06C13.433 30.9333 13.5219 30.8255 13.5863 30.7633C14.1787 30.1996 14.7235 29.5879 15.2152 28.9344C15.7375 28.2444 15.5486 27.9078 15.8097 27.2889C16.0719 26.6689 16.4108 26.6033 16.8586 26.0167C17.3086 25.4278 16.9941 25.6078 16.5086 25.5233ZM26.6663 17.4789V10.4633C26.6219 10.4678 26.5908 10.4767 26.5441 10.48C26.3119 10.4922 26.0086 10.63 25.6786 10.8355C25.6519 10.83 25.6275 10.8178 25.6008 10.8122C24.6052 10.6178 24.143 12.1511 23.3352 12.0922C22.5252 12.0333 21.4463 11.71 20.7441 12.6633C20.043 13.6155 19.8808 14.3633 20.7441 14.1011C21.6075 13.8389 22.2019 12.5178 22.633 12.8911C23.0641 13.2644 22.9552 13.6922 21.9308 14.1189C20.9063 14.5467 19.7997 15.0267 19.2063 15.1855C18.613 15.3444 18.4786 15.7789 18.8819 16.0989C19.2863 16.4189 18.6386 16.6222 17.9641 17.2322C17.2897 17.84 18.1263 17.8011 18.693 18.0155C19.2597 18.23 19.6908 17.6567 19.9341 16.98C20.1752 16.3044 21.2208 15.29 21.6563 15.2644C22.0919 15.2389 22.0919 15.4833 22.0097 15.9333C21.9952 16.0122 22.0108 16.0478 22.0219 16.0867C21.833 16.6867 21.6775 17.2311 21.6163 17.5378C21.5866 17.7568 21.5766 17.978 21.5863 18.1989C21.4908 18.2033 21.383 18.2222 21.3108 18.2C20.8241 18.0567 19.7175 17.9555 19.4208 18.2478C19.1241 18.5422 18.963 18.8055 18.6119 19.0511C18.2597 19.2944 16.8308 20.4111 16.8041 21.3667C16.7763 22.3211 16.7497 23.4 17.3163 23.2789C17.883 23.1578 19.2597 22.3611 19.6908 21.8478C20.1208 21.3333 20.7141 21.2678 20.9041 21.6744C21.093 22.0844 20.9575 22.3955 20.7708 23.1789C20.5808 23.9655 20.893 24.2489 21.1941 24.81C21.4975 25.37 21.7397 25.6711 21.7397 26.1311C21.7397 26.5889 22.1719 26.9344 22.8175 25.9944C23.0429 25.6558 23.242 25.3003 23.413 24.9311C23.8675 24.41 24.2663 23.9055 24.2552 23.7133C24.241 23.4824 24.2321 23.2513 24.2286 23.02L24.3297 22.7755C24.4708 22.45 24.5975 21.9467 24.7319 21.4922C24.7385 21.4827 24.7459 21.4737 24.7541 21.4655C25.0175 21.0911 24.9597 21.0733 25.3986 20.6255C25.6919 20.3255 25.6808 20.0567 25.6363 19.8722C25.753 19.6778 25.7852 19.5611 25.5997 19.6111L25.5819 19.6155C25.5797 19.6155 25.5763 19.6367 25.5752 19.6311C25.5497 19.4655 25.3463 19.6344 25.0186 19.7955C24.703 19.8044 24.3897 19.7222 24.2763 19.3867C24.1286 18.9467 23.6075 18.28 23.5663 17.9022C23.5697 17.8567 23.5719 17.8167 23.5775 17.7644C23.5908 17.7239 23.618 17.6893 23.6541 17.6667C23.6925 17.6453 23.7349 17.6321 23.7786 17.6278C23.8241 17.7511 23.8619 17.9378 23.8741 18.1433C23.903 18.6733 24.3119 18.3611 24.3119 18.6967C24.3119 19.0333 24.9008 19.2433 25.0463 19.3055C25.0875 19.3233 25.1508 19.2755 25.223 19.1967C25.2575 19.2089 25.2897 19.2333 25.3263 19.2378C25.6508 19.2722 26.3508 18.1444 26.5675 17.9444C26.6808 17.8389 26.683 17.6455 26.6041 17.5067L26.6663 17.4789Z" fill="#77B255"/>
<path d="M30.7048 22.4678C30.6459 22.9567 30.9092 22.6911 31.3781 23.2511C31.8481 23.8156 31.2625 23.6889 31.057 23.6022C30.8514 23.5133 30.6459 23.4567 30.4137 23.0267C30.177 22.5922 30.4137 22.2544 30.4137 21.8856C30.4137 21.8856 30.7648 21.9789 30.7048 22.4678ZM31.107 21.4667C31.5392 21.6511 31.2337 20.9311 31.3781 20.5322C31.5248 20.1367 31.7292 20.1233 31.9948 20.1289C32.257 20.1311 32.4637 19.9167 32.6403 19.6967C32.8148 19.4756 33.1381 19.1922 33.1092 18.8822C33.0803 18.5722 32.9937 18.3467 32.8737 17.9456C32.757 17.5456 33.2248 17.5367 33.4314 17.1556C33.6359 16.7744 33.4314 17.1556 33.8992 17.1467C34.3681 17.1378 34.1637 17.0822 34.2503 16.9044C34.3392 16.7278 34.3981 16.5411 34.3103 16.1489C34.2237 15.7567 33.8992 16.0378 33.577 15.9522C33.2559 15.8667 33.6948 15.48 33.7237 15.0856C33.7525 14.69 34.1648 14.9022 34.4581 14.9467C34.7503 14.99 34.8381 15.4844 34.9259 15.61C35.0159 15.7344 35.9203 15.2044 36.157 14.8978C36.3914 14.5922 35.9503 14.5744 36.0692 14.45C36.187 14.3267 35.367 14.0756 35.0414 13.9289C34.7203 13.7811 33.8992 13.5211 33.577 13.2078C33.2559 12.8933 32.0259 12.7344 31.7014 12.8333C31.3781 12.9289 31.1725 12.6744 31.0281 12.3822C30.8825 12.0911 30.2659 12.0522 30.0903 11.8633C29.9148 11.6744 29.7392 12.0044 29.5025 12.0411C29.2692 12.08 29.1814 12.0889 28.887 11.8089C28.5948 11.5289 28.9759 11.3967 28.567 11.1189C28.1725 10.8544 27.6637 10.9167 26.667 10.4622V17.4778C26.8414 17.4933 27.0103 17.5178 27.0714 17.5344C27.217 17.5733 27.5692 18.1711 27.5692 18.4056C27.5692 18.64 27.7448 19.3256 27.8925 19.7333C28.0381 20.14 28.3592 20.2956 28.6548 20.6422C28.9481 20.9889 29.0925 20.7944 29.0925 20.7944C29.0925 20.7944 28.9759 20.19 28.9759 19.7222C28.9759 19.2511 29.327 18.9433 29.327 18.9433C29.327 18.9433 29.8825 19.5633 29.9137 19.7044C29.9425 19.8467 30.3814 20.4333 30.4125 20.6778C30.4414 20.9211 30.6759 21.2844 31.107 21.4667ZM33.4314 19.1689C33.6359 19.2578 34.5159 19.3589 34.047 18.7978C33.577 18.2356 33.9292 18.4656 33.9881 17.9778C34.047 17.4889 33.6948 17.3956 33.6948 17.3956C33.6948 17.7644 33.4603 18.1044 33.6948 18.5356C33.9281 18.9689 33.2248 19.08 33.4314 19.1689ZM35.6581 25.1367C35.5125 24.8956 35.1903 24.7089 34.8381 24.6244C34.4881 24.54 34.5159 24.0911 34.1648 24.0322C33.8137 23.9711 33.5603 23.6 33.4025 23.4633C33.0559 23.1678 33.2848 23.6956 33.4025 24.24C33.5203 24.7822 33.9592 24.5133 34.3681 24.8911C34.7781 25.2689 34.8092 24.9089 35.1903 25.1456C35.5703 25.38 35.7181 25.7233 36.0837 25.7878C36.4492 25.8533 35.8059 25.3778 35.6581 25.1367ZM32.227 23.5456C32.5181 23.9922 32.4037 23.5933 32.787 23.5278C33.1681 23.4622 32.4637 22.9044 32.2292 22.64C31.9948 22.3756 31.7625 22.3056 31.557 22.6944C31.3237 23.1378 31.937 23.0989 32.227 23.5456ZM34.897 26.4111C34.7492 26.0356 34.3214 25.6189 34.147 25.4C33.9703 25.1856 33.6948 25.0533 33.4603 25.09C33.2248 25.1244 33.0792 24.9878 32.9625 24.6889C32.8448 24.3933 32.6403 24.43 32.4637 24.4178C32.2892 24.4044 31.5848 24.55 31.1737 24.6733C30.7648 24.7989 30.577 24.9533 30.3092 25.1811C29.8848 25.5367 30.1203 25.2978 30.3092 25.6522C30.4959 26.0056 30.1014 26.8367 30.0725 27.3667C30.0425 27.8967 30.8237 27.4011 31.1159 27.41C31.4092 27.4233 31.3225 27.2 31.5559 27.0611C31.7914 26.9222 31.9437 26.9178 32.1992 27.2522C32.4581 27.5911 32.7959 27.9311 32.7959 28.2333C32.7959 28.5333 33.7225 29.2855 34.0748 29.18C34.4259 29.0711 34.6314 28.7267 34.9537 28.4744C35.277 28.2244 35.1603 27.5589 35.247 27.1767C35.337 26.7944 35.0414 26.7833 34.897 26.4111Z" fill="#5C913B"/>
</svg>
