<?xml version="1.0" encoding="UTF-8"?>
<svg version="1.1" xmlns="http://www.w3.org/2000/svg" width="782" height="746">
<path d="M0 0 C2.54493171 0.08936999 5.08990211 0.17764378 7.63490647 0.26492041 C13.15284841 0.45665477 18.67042786 0.65608306 24.18784142 0.86242294 C32.39280391 1.16923161 40.59823697 1.46161877 48.80382487 1.75115548 C62.61412589 2.23886916 76.42398307 2.73821915 90.2336216 3.24431801 C103.91213378 3.745584 117.59081299 4.24181929 131.2697506 4.73134422 C132.12169708 4.76183621 132.97364357 4.79232819 133.85140662 4.82374417 C138.17870327 4.97859897 142.50600295 5.13336874 146.83330371 5.28810855 C177.46933253 6.38380144 208.10492235 7.49135388 238.74028015 8.6056366 C268.45422828 9.68638921 298.16839507 10.76081621 327.88285828 11.82731628 C328.79803733 11.8601655 329.71321639 11.89301472 330.65612814 11.92685937 C338.93487832 12.22401144 347.21363028 12.52111408 355.49238374 12.81817507 C387.24430584 13.95758352 418.99606232 15.10159924 450.74777552 16.24681255 C454.1698613 16.37023869 457.59194807 16.4936373 461.01403573 16.61701134 C480.71529592 17.32729937 500.41650697 18.03890715 520.11754838 18.75524072 C521.64193618 18.81066461 523.16632404 18.86608667 524.69071198 18.92150688 C525.437634 18.94866181 526.18455603 18.97581675 526.95411207 19.00379456 C532.11218537 19.19122234 537.27029343 19.3776718 542.42841911 19.56365204 C549.24268925 19.80935409 556.05688493 20.05702558 562.87103393 20.30606803 C565.32982791 20.39563393 567.78864504 20.48456705 570.2474877 20.57278619 C623.22395711 22.47524021 623.22395711 22.47524021 626.80415344 55.3711853 C626.97453181 56.89917755 627.14538913 58.42711645 627.31668222 59.95500642 C627.78458685 64.14127809 628.24563206 68.32828071 628.70551968 72.51543963 C629.2032453 77.03613775 629.70731025 81.55612963 630.21054077 86.07621765 C631.19492657 94.92763414 632.17330877 103.7797043 633.14947201 112.63203099 C633.94325585 119.82968321 634.73907586 127.02710753 635.53634262 134.22437477 C635.70662087 135.76160733 635.70662087 135.76160733 635.88033908 137.32989508 C636.11097017 139.41193562 636.34160411 141.49397584 636.57224087 143.57601575 C638.7346494 163.09937145 640.89005352 182.62349571 643.04322855 202.14787159 C645.0118194 219.99665071 646.98862878 237.84450808 648.9694186 255.69193717 C651.00441476 274.02836573 653.0341593 292.36536841 655.05811536 310.70301896 C655.28724893 312.7788844 655.51639065 314.85474894 655.74554062 316.93061256 C655.91464844 318.46255619 655.91464844 318.46255619 656.08717258 320.02544817 C656.88046301 327.20872828 657.67715632 334.39162624 658.47522354 341.57437706 C659.44866943 350.33618923 660.41708735 359.09853964 661.37911369 367.8616133 C661.86972921 372.3293968 662.36258018 376.79690241 662.86165047 381.26375008 C663.31921501 385.35967229 663.77012149 389.45627292 664.21592061 393.55349187 C664.37759284 395.02884754 664.5416143 396.50394827 664.70833559 397.97874191 C668.23530937 429.22858435 660.51828384 434.74699449 631.14360046 440.84196472 C629.56061104 441.17376017 627.97770202 441.50593947 626.39486694 441.83847046 C622.12306177 442.73480741 617.85016804 443.62585049 613.5770576 444.5159409 C609.09096834 445.45138525 604.60593456 446.391863 600.12078857 447.33181763 C591.62918295 449.11063907 583.13668303 450.88515099 574.64383179 452.65801471 C563.12160798 455.06345792 551.60063124 457.47485737 540.07964623 459.88622558 C537.30568509 460.46682188 534.53171979 461.04739826 531.75775146 461.62796021 C530.85777752 461.81631972 529.95780357 462.00467924 529.03055769 462.19874662 C523.70109791 463.31402801 518.37141277 464.42822461 513.04151332 465.54140294 C509.72068258 466.23500753 506.39993529 466.92901118 503.07919502 467.62304878 C501.54624289 467.9433165 500.01324911 468.2633849 498.48020935 468.58323288 C491.59334703 470.02011731 484.70760039 471.45751499 477.84352779 473.00035381 C475.16169603 473.60155909 472.47356063 474.17174917 469.78471375 474.74064636 C468.65066605 474.98074432 467.51661835 475.22084229 466.34820557 475.46821594 C465.15412582 475.72037872 463.96004608 475.9725415 462.7297821 476.23234558 C461.48208542 476.49586823 460.23438873 476.75939087 458.94888306 477.03089905 C456.32765328 477.58418573 453.70636702 478.13719788 451.08500671 478.68986511 C447.72320626 479.39878834 444.36190894 480.11006913 441.00071049 480.82184029 C437.78576579 481.50207144 434.57023297 482.17951176 431.3547821 482.85734558 C430.14653275 483.11355682 428.93828339 483.36976807 427.69342041 483.63374329 C426.58143784 483.86753693 425.46945526 484.10133057 424.32377625 484.34220886 C422.85225853 484.65292831 422.85225853 484.65292831 421.35101318 484.96992493 C419.00712585 485.41203308 419.00712585 485.41203308 417.00712585 485.41203308 C417.01786124 487.56787385 417.01786124 487.56787385 417.46806335 490.23234558 C417.60986023 491.24297058 417.7516571 492.25359558 417.89775085 493.29484558 C418.13751648 494.89972839 418.13751648 494.89972839 418.38212585 496.53703308 C418.68517967 498.62245424 418.98476113 500.70838349 419.28056335 502.79484558 C419.41897644 503.7269989 419.55738953 504.65915222 419.69999695 505.61955261 C420.02474168 508.57219983 420.02729094 511.44385451 420.00712585 514.41203308 C420.71012314 514.2513887 421.41312042 514.09074432 422.13742065 513.92523193 C428.77269258 512.40910842 435.40811202 510.89363205 442.0436964 509.37887669 C445.45484598 508.60016375 448.86593868 507.82120349 452.27690125 507.04167175 C456.20112961 506.14485124 460.1256054 505.24911775 464.0500946 504.35343933 C465.2710936 504.07424149 466.49209259 503.79504364 467.75009155 503.50738525 C468.89089676 503.24719101 470.03170197 502.98699677 471.20707703 502.71891785 C472.70932076 502.37583336 472.70932076 502.37583336 474.24191284 502.02581787 C487.36902242 499.11203866 494.83213275 500.53365975 506.50712585 507.47453308 C507.7824286 508.20872361 509.05915195 508.94045143 510.33720398 509.66984558 C512.95999185 511.16989834 515.57582799 512.68108561 518.18681335 514.20158386 C523.91124439 517.52658196 529.71202192 520.71217451 535.50712585 523.91203308 C537.71703596 525.14070581 539.92666888 526.36987723 542.1360321 527.59953308 C546.99221441 530.29764684 551.85481198 532.98377513 556.7219696 535.66203308 C557.36844452 536.01793518 558.01491943 536.37383728 558.6809845 536.74052429 C561.79123938 538.45263413 564.90231479 540.16321775 568.01493835 541.87101746 C592.09164484 555.11732405 592.09164484 555.11732405 592.85868835 562.19718933 C592.9875946 563.36830261 593.11650085 564.53941589 593.24931335 565.74601746 C593.43880554 567.59163269 593.43880554 567.59163269 593.63212585 569.47453308 C593.76618835 570.67787292 593.90025085 571.88121277 594.03837585 573.12101746 C594.29033209 575.47475145 594.51789939 577.83124515 594.71903992 580.18986511 C594.89622277 582.17161029 595.12639733 584.15047559 595.44364929 586.1146698 C596.78060344 597.5929683 579.06106076 599.42417039 570.4719696 601.86906433 C569.02833081 602.28794175 567.58495838 602.70773811 566.14183044 603.12837219 C563.04193482 604.03007903 559.94044207 604.92597142 556.83753967 605.817276 C551.8446929 607.25173951 546.85585658 608.69980691 541.86772156 610.15055847 C540.14151278 610.65250586 538.41530121 611.15444365 536.68908691 611.65637207 C535.82467295 611.90773737 534.96025898 612.15910267 534.06965065 612.4180851 C531.40692529 613.19188585 528.74383809 613.96442983 526.08065796 614.73666382 C508.94453317 619.70746161 491.83665018 624.77190237 474.73295593 629.85298157 C466.23670227 632.37699412 457.73905991 634.89632591 449.24150085 637.41593933 C448.39853455 637.66592367 447.55556824 637.91590801 446.6870575 638.17346764 C425.57543291 644.43389113 404.45391633 650.66070674 383.33087063 656.88246822 C379.32837405 658.06142293 375.32593601 659.24057629 371.3235321 660.41984558 C370.52232248 660.65590578 369.72111286 660.89196598 368.89562416 661.13517952 C355.94283056 664.95197862 342.99415587 668.78259195 330.04696083 672.61833572 C323.9650024 674.41995512 317.88267704 676.22033556 311.8003912 678.02084923 C305.93229577 679.75817694 300.0648677 681.49773603 294.19791889 683.23893166 C290.55295806 684.32011148 286.90737512 685.39918183 283.2616291 686.47771072 C281.57402597 686.97743912 279.88668261 687.47804585 278.19962883 687.9796257 C242.83241107 698.49294141 242.83241107 698.49294141 237.00712585 692.41203308 C235.99267462 689.30086124 235.57737873 686.11925247 235.11601257 682.88615417 C234.96258392 681.9084053 234.80915527 680.93065643 234.65107727 679.92327881 C234.14640678 676.67965538 233.66648582 673.43287715 233.18681335 670.18547058 C232.84001736 667.92098064 232.49178002 665.65671101 232.14216614 663.39265442 C231.22332569 657.41406134 230.3257683 651.43245084 229.43205261 645.45005798 C228.70575982 640.61227085 227.96462994 635.77681603 227.22256279 630.94142723 C226.33062862 625.12770416 225.44521474 619.31299572 224.56181335 613.49797058 C224.39603664 612.40730663 224.23025993 611.31664268 224.05945969 610.19292831 C222.15511249 597.61969586 220.3802794 585.05534351 219.00712585 572.41203308 C218.87426178 571.38758087 218.74139771 570.36312866 218.60450745 569.30763245 C217.68831191 558.15046547 230.02464133 557.39615463 238.87431335 555.37687683 C240.10511627 555.08796066 241.33591919 554.79904449 242.60401917 554.50137329 C246.23266718 553.65157685 249.86476217 552.81738507 253.49777222 551.98645782 C256.16890137 551.37500049 258.83934282 550.76060264 261.50968933 550.14573669 C274.15873959 547.23492736 286.81427517 544.35319564 299.47294617 541.48454285 C305.08999284 540.21155513 310.70591952 538.93369537 316.32159615 537.6546793 C320.67723914 536.66335405 325.03354694 535.67497646 329.39005661 534.68746758 C331.46438065 534.21680838 333.53847226 533.74512353 335.61232376 533.27238655 C338.48168182 532.61867665 341.35193307 531.96904469 344.22245789 531.32048035 C345.49847115 531.02840195 345.49847115 531.02840195 346.80026245 530.73042297 C349.92769285 530.02732115 352.79060969 529.41203308 356.00712585 529.41203308 C356.15585125 526.93189591 356.15585125 526.93189591 355.67900085 523.86515808 C355.53849304 522.71015808 355.39798523 521.55515808 355.2532196 520.36515808 C355.08950867 519.14312683 354.92579773 517.92109558 354.75712585 516.66203308 C354.53476257 514.85218933 354.53476257 514.85218933 354.3079071 513.00578308 C353.90558276 509.80142992 353.49762089 506.60409138 353.00712585 503.41203308 C352.91524758 502.31416442 352.91524758 502.31416442 352.82151318 501.19411659 C351.4420819 498.17557533 349.49669568 499.42373856 346.54040527 500.05787659 C344.75150249 500.42624225 344.75150249 500.42624225 342.92646027 500.80204964 C341.58714094 501.0992631 340.24790275 501.39684239 338.90873718 501.69474792 C337.50109015 501.99262671 336.09306618 502.288729 334.68470001 502.58318901 C330.80223508 503.40028858 326.9255728 504.24248169 323.04935098 505.08863163 C318.89727639 505.99043665 314.74030931 506.86910703 310.58383179 507.75035095 C303.41290796 509.27392352 296.24518637 510.81185186 289.07939148 512.35935974 C278.76443159 514.58672746 268.44449716 516.79026275 258.12298512 518.9870441 C241.72815654 522.47674213 225.33653582 525.98123849 208.94706726 529.49601746 C179.13199871 535.88940353 149.30938534 542.24711852 119.47939396 548.57051277 C110.98989272 550.37054626 102.50204815 552.17804073 94.01635557 553.99594688 C88.23107349 555.23500241 82.44443883 556.46758878 76.65669531 557.69509506 C73.34729358 558.39724227 70.03889556 559.1034285 66.73171043 559.81598663 C17.04931749 570.514167 17.04931749 570.514167 10.00712585 551.41203308 C9.14708009 547.59313658 8.70285516 543.76091989 8.27558899 539.87242126 C8.13684439 538.7212953 7.9980998 537.57016933 7.85515082 536.38416076 C7.47337834 533.19170699 7.10511316 529.99802722 6.74240381 526.80336225 C6.34348431 523.32033637 5.92678381 519.83943194 5.51223373 516.35823822 C4.787089 510.24897203 4.07279898 504.138514 3.36553574 498.02715302 C2.3128793 488.93300806 1.24262142 479.84099703 0.16778232 470.74945006 C-0.34600874 466.40340365 -0.8591834 462.05728452 -1.37220573 457.71114731 C-1.47585559 456.83307765 -1.57950544 455.955008 -1.6862962 455.05033018 C-2.43983125 448.66365065 -3.19017233 442.27660022 -3.93908882 435.88937759 C-7.14884454 408.51803117 -10.40268972 381.15216068 -13.68135071 353.78898621 C-13.92466721 351.75796777 -14.16797988 349.72694888 -14.41128874 347.69592953 C-15.27087561 340.52079423 -16.13048091 333.34566114 -16.99033341 326.17055768 C-20.11027554 300.13589785 -23.21563963 274.09950162 -26.32071733 248.06306553 C-27.07271289 241.7575069 -27.82476336 235.45195483 -28.57685852 229.14640808 C-28.70130119 228.10304635 -28.82574387 227.05968462 -28.95395753 225.98470587 C-31.01527147 208.70297533 -33.08116234 191.42179457 -35.14855666 174.14079049 C-37.30954901 156.07665427 -39.46612255 138.01199464 -41.6184572 119.94682479 C-42.92876564 108.95013446 -44.24239652 97.95385226 -45.56053184 86.95809731 C-46.45162849 79.52183748 -47.33841093 72.08507122 -48.2217523 64.64788619 C-48.72926791 60.37597943 -49.23867086 56.10432045 -49.75322914 51.83325577 C-50.22388156 47.92628016 -50.68907233 44.01869364 -51.14999418 40.11055848 C-51.31698642 38.70278469 -51.48594446 37.29524231 -51.65712507 35.88797167 C-55.35679893 5.4341832 -55.35679893 5.4341832 -36.25971347 0.74023932 C-24.1868668 -1.24141391 -12.17445566 -0.47155929 0 0 Z " fill="#3E3F55" transform="translate(83.99287414550781,29.587966918945313)"/>
<path d="M0 0 C2.54493171 0.08936999 5.08990211 0.17764378 7.63490647 0.26492041 C13.15284841 0.45665477 18.67042786 0.65608306 24.18784142 0.86242294 C32.39280391 1.16923161 40.59823697 1.46161877 48.80382487 1.75115548 C62.61412589 2.23886916 76.42398307 2.73821915 90.2336216 3.24431801 C103.91213378 3.745584 117.59081299 4.24181929 131.2697506 4.73134422 C132.12169708 4.76183621 132.97364357 4.79232819 133.85140662 4.82374417 C138.17870327 4.97859897 142.50600295 5.13336874 146.83330371 5.28810855 C177.46933253 6.38380144 208.10492235 7.49135388 238.74028015 8.6056366 C268.45422828 9.68638921 298.16839507 10.76081621 327.88285828 11.82731628 C328.79803733 11.8601655 329.71321639 11.89301472 330.65612814 11.92685937 C338.93487832 12.22401144 347.21363028 12.52111408 355.49238374 12.81817507 C387.24430584 13.95758352 418.99606232 15.10159924 450.74777552 16.24681255 C454.1698613 16.37023869 457.59194807 16.4936373 461.01403573 16.61701134 C480.71529592 17.32729937 500.41650697 18.03890715 520.11754838 18.75524072 C521.64193618 18.81066461 523.16632404 18.86608667 524.69071198 18.92150688 C525.437634 18.94866181 526.18455603 18.97581675 526.95411207 19.00379456 C532.11218537 19.19122234 537.27029343 19.3776718 542.42841911 19.56365204 C549.24268925 19.80935409 556.05688493 20.05702558 562.87103393 20.30606803 C565.32982791 20.39563393 567.78864504 20.48456705 570.2474877 20.57278619 C623.22395711 22.47524021 623.22395711 22.47524021 626.80415344 55.3711853 C626.97453181 56.89917755 627.14538913 58.42711645 627.31668222 59.95500642 C627.78458685 64.14127809 628.24563206 68.32828071 628.70551968 72.51543963 C629.2032453 77.03613775 629.70731025 81.55612963 630.21054077 86.07621765 C631.19492657 94.92763414 632.17330877 103.7797043 633.14947201 112.63203099 C633.94325585 119.82968321 634.73907586 127.02710753 635.53634262 134.22437477 C635.70662087 135.76160733 635.70662087 135.76160733 635.88033908 137.32989508 C636.11097017 139.41193562 636.34160411 141.49397584 636.57224087 143.57601575 C638.7346494 163.09937145 640.89005352 182.62349571 643.04322855 202.14787159 C645.0118194 219.99665071 646.98862878 237.84450808 648.9694186 255.69193717 C651.00441476 274.02836573 653.0341593 292.36536841 655.05811536 310.70301896 C655.28724893 312.7788844 655.51639065 314.85474894 655.74554062 316.93061256 C655.91464844 318.46255619 655.91464844 318.46255619 656.08717258 320.02544817 C656.88046301 327.20872828 657.67715632 334.39162624 658.47522354 341.57437706 C659.44866943 350.33618923 660.41708735 359.09853964 661.37911369 367.8616133 C661.86972921 372.3293968 662.36258018 376.79690241 662.86165047 381.26375008 C663.31921501 385.35967229 663.77012149 389.45627292 664.21592061 393.55349187 C664.37759284 395.02884754 664.5416143 396.50394827 664.70833559 397.97874191 C668.23530937 429.22858435 660.51828384 434.74699449 631.14360046 440.84196472 C629.56061104 441.17376017 627.97770202 441.50593947 626.39486694 441.83847046 C622.12306177 442.73480741 617.85016804 443.62585049 613.5770576 444.5159409 C609.09096834 445.45138525 604.60593456 446.391863 600.12078857 447.33181763 C591.62918295 449.11063907 583.13668303 450.88515099 574.64383179 452.65801471 C563.12160798 455.06345792 551.60063124 457.47485737 540.07964623 459.88622558 C537.30568509 460.46682188 534.53171979 461.04739826 531.75775146 461.62796021 C530.85777752 461.81631972 529.95780357 462.00467924 529.03055769 462.19874662 C523.70109791 463.31402801 518.37141277 464.42822461 513.04151332 465.54140294 C509.72068258 466.23500753 506.39993529 466.92901118 503.07919502 467.62304878 C501.54624289 467.9433165 500.01324911 468.2633849 498.48020935 468.58323288 C491.59334703 470.02011731 484.70760039 471.45751499 477.84352779 473.00035381 C475.16169603 473.60155909 472.47356063 474.17174917 469.78471375 474.74064636 C468.65066605 474.98074432 467.51661835 475.22084229 466.34820557 475.46821594 C465.15412582 475.72037872 463.96004608 475.9725415 462.7297821 476.23234558 C461.48208542 476.49586823 460.23438873 476.75939087 458.94888306 477.03089905 C456.32765328 477.58418573 453.70636702 478.13719788 451.08500671 478.68986511 C447.72320626 479.39878834 444.36190894 480.11006913 441.00071049 480.82184029 C437.78576579 481.50207144 434.57023297 482.17951176 431.3547821 482.85734558 C430.14653275 483.11355682 428.93828339 483.36976807 427.69342041 483.63374329 C426.58143784 483.86753693 425.46945526 484.10133057 424.32377625 484.34220886 C422.85225853 484.65292831 422.85225853 484.65292831 421.35101318 484.96992493 C419.00712585 485.41203308 419.00712585 485.41203308 417.00712585 485.41203308 C417.01786124 487.56787385 417.01786124 487.56787385 417.46806335 490.23234558 C417.60986023 491.24297058 417.7516571 492.25359558 417.89775085 493.29484558 C418.13751648 494.89972839 418.13751648 494.89972839 418.38212585 496.53703308 C418.68517967 498.62245424 418.98476113 500.70838349 419.28056335 502.79484558 C419.41897644 503.7269989 419.55738953 504.65915222 419.69999695 505.61955261 C420.02474168 508.57219983 420.02729094 511.44385451 420.00712585 514.41203308 C420.71012314 514.2513887 421.41312042 514.09074432 422.13742065 513.92523193 C428.77269258 512.40910842 435.40811202 510.89363205 442.0436964 509.37887669 C445.45484598 508.60016375 448.86593868 507.82120349 452.27690125 507.04167175 C456.20112961 506.14485124 460.1256054 505.24911775 464.0500946 504.35343933 C465.2710936 504.07424149 466.49209259 503.79504364 467.75009155 503.50738525 C468.89089676 503.24719101 470.03170197 502.98699677 471.20707703 502.71891785 C472.70932076 502.37583336 472.70932076 502.37583336 474.24191284 502.02581787 C487.36902242 499.11203866 494.83213275 500.53365975 506.50712585 507.47453308 C507.7824286 508.20872361 509.05915195 508.94045143 510.33720398 509.66984558 C512.95999185 511.16989834 515.57582799 512.68108561 518.18681335 514.20158386 C523.91124439 517.52658196 529.71202192 520.71217451 535.50712585 523.91203308 C537.71703596 525.14070581 539.92666888 526.36987723 542.1360321 527.59953308 C546.99221441 530.29764684 551.85481198 532.98377513 556.7219696 535.66203308 C557.36844452 536.01793518 558.01491943 536.37383728 558.6809845 536.74052429 C561.79123938 538.45263413 564.90231479 540.16321775 568.01493835 541.87101746 C592.09164484 555.11732405 592.09164484 555.11732405 592.85868835 562.19718933 C592.9875946 563.36830261 593.11650085 564.53941589 593.24931335 565.74601746 C593.43880554 567.59163269 593.43880554 567.59163269 593.63212585 569.47453308 C593.76618835 570.67787292 593.90025085 571.88121277 594.03837585 573.12101746 C594.29033209 575.47475145 594.51789939 577.83124515 594.71903992 580.18986511 C594.89622277 582.17161029 595.12639733 584.15047559 595.44364929 586.1146698 C596.78060344 597.5929683 579.06106076 599.42417039 570.4719696 601.86906433 C569.02833081 602.28794175 567.58495838 602.70773811 566.14183044 603.12837219 C563.04193482 604.03007903 559.94044207 604.92597142 556.83753967 605.817276 C551.8446929 607.25173951 546.85585658 608.69980691 541.86772156 610.15055847 C540.14151278 610.65250586 538.41530121 611.15444365 536.68908691 611.65637207 C535.82467295 611.90773737 534.96025898 612.15910267 534.06965065 612.4180851 C531.40692529 613.19188585 528.74383809 613.96442983 526.08065796 614.73666382 C508.94453317 619.70746161 491.83665018 624.77190237 474.73295593 629.85298157 C466.23670227 632.37699412 457.73905991 634.89632591 449.24150085 637.41593933 C448.39853455 637.66592367 447.55556824 637.91590801 446.6870575 638.17346764 C425.57543291 644.43389113 404.45391633 650.66070674 383.33087063 656.88246822 C379.32837405 658.06142293 375.32593601 659.24057629 371.3235321 660.41984558 C370.52232248 660.65590578 369.72111286 660.89196598 368.89562416 661.13517952 C355.94283056 664.95197862 342.99415587 668.78259195 330.04696083 672.61833572 C323.9650024 674.41995512 317.88267704 676.22033556 311.8003912 678.02084923 C305.93229577 679.75817694 300.0648677 681.49773603 294.19791889 683.23893166 C290.55295806 684.32011148 286.90737512 685.39918183 283.2616291 686.47771072 C281.57402597 686.97743912 279.88668261 687.47804585 278.19962883 687.9796257 C242.83241107 698.49294141 242.83241107 698.49294141 237.00712585 692.41203308 C235.99267462 689.30086124 235.57737873 686.11925247 235.11601257 682.88615417 C234.96258392 681.9084053 234.80915527 680.93065643 234.65107727 679.92327881 C234.14640678 676.67965538 233.66648582 673.43287715 233.18681335 670.18547058 C232.84001736 667.92098064 232.49178002 665.65671101 232.14216614 663.39265442 C231.22332569 657.41406134 230.3257683 651.43245084 229.43205261 645.45005798 C228.70575982 640.61227085 227.96462994 635.77681603 227.22256279 630.94142723 C226.33062862 625.12770416 225.44521474 619.31299572 224.56181335 613.49797058 C224.39603664 612.40730663 224.23025993 611.31664268 224.05945969 610.19292831 C222.15511249 597.61969586 220.3802794 585.05534351 219.00712585 572.41203308 C218.87426178 571.38758087 218.74139771 570.36312866 218.60450745 569.30763245 C217.68831191 558.15046547 230.02464133 557.39615463 238.87431335 555.37687683 C240.10511627 555.08796066 241.33591919 554.79904449 242.60401917 554.50137329 C246.23266718 553.65157685 249.86476217 552.81738507 253.49777222 551.98645782 C256.16890137 551.37500049 258.83934282 550.76060264 261.50968933 550.14573669 C274.15873959 547.23492736 286.81427517 544.35319564 299.47294617 541.48454285 C305.08999284 540.21155513 310.70591952 538.93369537 316.32159615 537.6546793 C320.67723914 536.66335405 325.03354694 535.67497646 329.39005661 534.68746758 C331.46438065 534.21680838 333.53847226 533.74512353 335.61232376 533.27238655 C338.48168182 532.61867665 341.35193307 531.96904469 344.22245789 531.32048035 C345.49847115 531.02840195 345.49847115 531.02840195 346.80026245 530.73042297 C349.92769285 530.02732115 352.79060969 529.41203308 356.00712585 529.41203308 C356.15585125 526.93189591 356.15585125 526.93189591 355.67900085 523.86515808 C355.53849304 522.71015808 355.39798523 521.55515808 355.2532196 520.36515808 C355.08950867 519.14312683 354.92579773 517.92109558 354.75712585 516.66203308 C354.53476257 514.85218933 354.53476257 514.85218933 354.3079071 513.00578308 C353.90558276 509.80142992 353.49762089 506.60409138 353.00712585 503.41203308 C352.91524758 502.31416442 352.91524758 502.31416442 352.82151318 501.19411659 C351.4420819 498.17557533 349.49669568 499.42373856 346.54040527 500.05787659 C344.75150249 500.42624225 344.75150249 500.42624225 342.92646027 500.80204964 C341.58714094 501.0992631 340.24790275 501.39684239 338.90873718 501.69474792 C337.50109015 501.99262671 336.09306618 502.288729 334.68470001 502.58318901 C330.80223508 503.40028858 326.9255728 504.24248169 323.04935098 505.08863163 C318.89727639 505.99043665 314.74030931 506.86910703 310.58383179 507.75035095 C303.41290796 509.27392352 296.24518637 510.81185186 289.07939148 512.35935974 C278.76443159 514.58672746 268.44449716 516.79026275 258.12298512 518.9870441 C241.72815654 522.47674213 225.33653582 525.98123849 208.94706726 529.49601746 C179.13199871 535.88940353 149.30938534 542.24711852 119.47939396 548.57051277 C110.98989272 550.37054626 102.50204815 552.17804073 94.01635557 553.99594688 C88.23107349 555.23500241 82.44443883 556.46758878 76.65669531 557.69509506 C73.34729358 558.39724227 70.03889556 559.1034285 66.73171043 559.81598663 C17.04931749 570.514167 17.04931749 570.514167 10.00712585 551.41203308 C9.14708009 547.59313658 8.70285516 543.76091989 8.27558899 539.87242126 C8.13684439 538.7212953 7.9980998 537.57016933 7.85515082 536.38416076 C7.47337834 533.19170699 7.10511316 529.99802722 6.74240381 526.80336225 C6.34348431 523.32033637 5.92678381 519.83943194 5.51223373 516.35823822 C4.787089 510.24897203 4.07279898 504.138514 3.36553574 498.02715302 C2.3128793 488.93300806 1.24262142 479.84099703 0.16778232 470.74945006 C-0.34600874 466.40340365 -0.8591834 462.05728452 -1.37220573 457.71114731 C-1.47585559 456.83307765 -1.57950544 455.955008 -1.6862962 455.05033018 C-2.43983125 448.66365065 -3.19017233 442.27660022 -3.93908882 435.88937759 C-7.14884454 408.51803117 -10.40268972 381.15216068 -13.68135071 353.78898621 C-13.92466721 351.75796777 -14.16797988 349.72694888 -14.41128874 347.69592953 C-15.27087561 340.52079423 -16.13048091 333.34566114 -16.99033341 326.17055768 C-20.11027554 300.13589785 -23.21563963 274.09950162 -26.32071733 248.06306553 C-27.07271289 241.7575069 -27.82476336 235.45195483 -28.57685852 229.14640808 C-28.70130119 228.10304635 -28.82574387 227.05968462 -28.95395753 225.98470587 C-31.01527147 208.70297533 -33.08116234 191.42179457 -35.14855666 174.14079049 C-37.30954901 156.07665427 -39.46612255 138.01199464 -41.6184572 119.94682479 C-42.92876564 108.95013446 -44.24239652 97.95385226 -45.56053184 86.95809731 C-46.45162849 79.52183748 -47.33841093 72.08507122 -48.2217523 64.64788619 C-48.72926791 60.37597943 -49.23867086 56.10432045 -49.75322914 51.83325577 C-50.22388156 47.92628016 -50.68907233 44.01869364 -51.14999418 40.11055848 C-51.31698642 38.70278469 -51.48594446 37.29524231 -51.65712507 35.88797167 C-55.35679893 5.4341832 -55.35679893 5.4341832 -36.25971347 0.74023932 C-24.1868668 -1.24141391 -12.17445566 -0.47155929 0 0 Z M-18.2311554 32.32218933 C-17.95429297 34.3685 -17.95429297 34.3685 -17.2414093 36.21330261 C-15.92162723 40.41263156 -15.50247191 44.41089203 -15.1608429 48.78312683 C-15.00820392 50.26081821 -14.85012368 51.73795635 -14.68696594 53.21452332 C-14.60473785 53.96821198 -14.52250977 54.72190063 -14.43778992 55.49842834 C-14.35284271 56.27429291 -14.26789551 57.05015747 -14.18037415 57.84953308 C-14.09228485 58.66124969 -14.00419556 59.47296631 -13.91343689 60.3092804 C-12.66101195 71.8267992 -11.25300499 83.31409975 -9.72006226 94.79788208 C-8.11783502 107.03256997 -6.75168129 119.29093867 -5.38792038 131.5541687 C-2.49766495 157.49893645 0.51903201 183.42780307 3.60868835 209.34953308 C3.70869597 210.18871623 3.80870358 211.02789938 3.91174173 211.89251232 C5.15901176 222.35683579 6.40932542 232.82079457 7.66061497 243.28463805 C8.8762647 253.45161045 10.08886825 263.61894591 11.30131531 273.78630066 C11.41194892 274.71402161 11.52258252 275.64174256 11.63656867 276.59757626 C12.08245243 280.33655544 12.52833035 284.07553531 12.97417837 287.81451875 C13.63725102 293.37512466 14.30050829 298.9357085 14.96392328 304.49627358 C18.59341293 334.9180032 22.20727426 365.3415426 25.80105972 395.76751328 C26.19272599 399.08344844 26.58452415 402.39936801 26.97633362 405.71528625 C29.57376671 427.7010824 32.16014082 449.68813929 34.72587585 471.67765808 C34.83309778 472.59636499 34.94031971 473.51507191 35.05079079 474.46161842 C36.04561661 482.98607869 37.03976374 491.51061476 38.02863121 500.03576851 C38.37213425 502.99566278 38.71657117 505.95544795 39.06117249 508.91521454 C39.28837883 510.86983771 39.5142439 512.82461665 39.74003601 514.77940369 C40.01402215 517.13148952 40.31365301 519.48077195 40.64247131 521.82582092 C40.9226711 524.58145888 40.98802875 527.00274681 40.88960266 529.74555969 C40.53009766 537.53229644 40.53009766 537.53229644 46.39666748 540.87367249 C50.69654571 540.39913115 54.84266664 539.2888504 59.01508331 538.17531967 C63.15124652 537.12016157 67.32502109 536.35193197 71.51968575 535.56803989 C77.52956172 534.44020361 83.52011045 533.21450664 89.51493835 532.00968933 C92.1374366 531.48522076 94.75998339 530.96100008 97.38258362 530.43704224 C102.84765377 529.34456428 108.31210235 528.24902119 113.77616882 527.15153503 C120.04371116 525.89270282 126.31219734 524.63866112 132.58121598 523.38720328 C138.67875436 522.16987019 144.77562531 520.94922507 150.87220383 519.72709465 C153.43695698 519.21324902 156.00186683 518.70018477 158.56694412 518.18795967 C170.95483448 515.71241309 183.31897913 513.21555289 195.59303284 510.2202301 C201.02776746 508.93369915 206.5092838 507.94816643 212.00712585 506.97453308 C214.36544193 506.54618218 216.72351032 506.11646562 219.0813446 505.68547058 C220.2471405 505.472453 221.4129364 505.25943542 222.61405945 505.03996277 C234.8455129 502.7763782 247.03053039 500.26905192 259.19462585 497.66984558 C262.23616303 497.0207994 265.27783363 496.3723829 268.31962585 495.72453308 C269.09920654 495.55837494 269.87878723 495.3922168 270.68199158 495.22102356 C287.76350081 491.59050346 304.9100396 488.31094239 322.07279968 485.08903503 C332.6121124 483.0992932 343.10224625 480.97888576 353.56268311 478.60766602 C367.59971623 475.46015857 381.68554801 472.59669586 395.79399109 469.78971863 C398.45159903 469.25869538 401.10915937 468.72743887 403.7666626 468.19589233 C409.42489565 467.06460853 415.08353588 465.93538197 420.74247551 464.80763817 C428.92816355 463.17632926 437.11315204 461.54153184 445.29798103 459.90591893 C458.59178641 457.24943181 471.88607548 454.59537401 485.18070984 451.94303894 C498.06467391 449.37262604 510.9484994 446.80152098 523.83207703 444.22917175 C524.62921069 444.07001574 525.42634434 443.91085972 526.24763357 443.74688079 C534.94904414 442.00952629 543.65040056 440.27190084 552.35169315 438.53395557 C553.49774028 438.30505166 553.49774028 438.30505166 554.66693987 438.07152343 C557.72032352 437.46165694 560.77370659 436.85178764 563.82708276 436.24188373 C572.75243265 434.45907563 581.67794966 432.67710954 590.6037733 430.89667479 C596.1845703 429.78345283 601.7652439 428.66961385 607.3458203 427.55528655 C610.56455136 426.91260512 613.78336969 426.27036624 617.00231552 425.62876129 C620.48756941 424.9340383 623.97258757 424.23814473 627.45755005 423.54196167 C628.47803749 423.33885602 629.49852493 423.13575037 630.54993623 422.92649001 C631.48176637 422.74009579 632.4135965 422.55370158 633.3736639 422.36165905 C634.17770497 422.20125202 634.98174604 422.040845 635.81015199 421.87557715 C636.53515337 421.72260761 637.26015474 421.56963807 638.00712585 421.41203308 C639.13272764 421.20527427 639.13272764 421.20527427 640.28106886 420.99433851 C643.26668264 419.98710693 642.2246491 417.8634147 641.89689636 415.04882812 C641.76896698 413.86281572 641.6410376 412.67680332 641.50923157 411.45485115 C641.34275984 410.10566855 641.17603132 408.75651762 641.00907898 407.40739441 C640.84563902 405.96311895 640.68406959 404.51863083 640.52418518 403.07395744 C640.1639108 399.85476695 639.79057507 396.6374228 639.40808105 393.42079735 C638.76746752 388.02982908 638.15566578 382.63580432 637.54753113 377.24108887 C636.85199841 371.08494206 636.15365752 364.92914639 635.44631195 358.77434444 C633.33257458 340.37858652 631.28936865 321.97549145 629.26493835 303.56974792 C629.099295 302.06430984 628.933643 300.55887271 628.76798248 299.05343652 C628.08898028 292.882812 627.41006179 286.71217828 626.73140335 280.54151595 C624.8826853 263.73491084 623.02214317 246.92961756 621.16072941 230.12441459 C620.43533412 223.57527336 619.71011462 217.02611266 618.98486185 210.47695564 C618.80237693 208.82911045 618.61988657 207.18126587 618.4373908 205.53342189 C616.94993963 192.10241764 615.46424642 178.67121955 613.97928602 165.23993971 C612.43552343 151.27697097 610.89053396 137.31413846 609.3442359 123.35145026 C608.48339919 115.57809133 607.62305243 107.80467894 606.76403809 100.03111839 C606.03981151 93.47739768 605.31444394 86.92380452 604.58757514 80.37037631 C604.21795341 77.03758387 603.84904461 73.70471665 603.48122025 70.37172508 C603.0828971 66.7631787 602.68254128 63.15486351 602.28166199 59.54660034 C602.16620356 58.49620927 602.05074513 57.4458182 601.93178797 56.3635971 C601.63596924 53.71143504 601.32336185 51.06181767 601.00712585 48.41203308 C600.81300739 46.61349491 600.81300739 46.61349491 600.61496735 44.77862263 C599.46191355 40.28928601 594.83989909 41.24601171 590.89329529 41.15557861 C589.60564018 41.12377817 588.31798508 41.09197773 586.99131012 41.05921364 C585.55354964 41.02839583 584.11578764 40.99764876 582.67802429 40.96696472 C581.15630885 40.93106421 579.6346034 40.89473845 578.11290741 40.85802269 C574.79619106 40.77887472 571.47942435 40.70265261 568.16259003 40.62861443 C562.7693279 40.50816237 557.37622947 40.38123713 551.98313904 40.25335693 C545.15665466 40.09189772 538.33013755 39.93196702 531.50357556 39.77382296 C517.91401194 39.45881699 504.32477739 39.13117367 490.73564148 38.79826355 C489.67238112 38.772224 488.60912077 38.74618445 487.5136404 38.71935582 C480.98905534 38.55949943 474.4644792 38.39928107 467.93990517 38.23897505 C461.32787632 38.07659787 454.71583665 37.91466216 448.10379839 37.75266874 C442.54862506 37.61656152 436.99345338 37.48038816 431.43828583 37.34404564 C420.10742285 37.06600356 408.77653679 36.7889577 397.44560242 36.51383972 C387.3081379 36.26769495 377.17071715 36.01982748 367.03334403 35.76994568 C361.7426744 35.63959168 356.45198837 35.5100345 351.16124725 35.38261223 C346.23868302 35.26403777 341.31618097 35.14314126 336.3937149 35.02056122 C334.61254914 34.97659532 332.83136345 34.93342697 331.05015564 34.89119911 C322.03693559 34.67704695 313.03642367 34.3840069 304.03213501 33.92549133 C291.01636169 33.269661 277.99302715 32.97305568 264.96537781 32.65592957 C262.20646023 32.58727585 259.44756063 32.51791087 256.68865967 32.44859314 C250.02329848 32.28157445 243.35787627 32.11713149 236.6924263 31.95369797 C231.26406931 31.82056149 225.83573515 31.68652774 220.40741539 31.55188179 C219.62956488 31.53258975 218.85171437 31.51329771 218.05029264 31.49342107 C216.46916584 31.45420467 214.88803907 31.4149872 213.30691233 31.37576867 C198.53671326 31.00952791 183.76644027 30.64634233 168.99614152 30.28414733 C155.54519061 29.95421556 142.09433354 29.62062082 128.643517 29.28525972 C114.76397469 28.93923982 100.88437467 28.59562813 87.00470895 28.25459343 C79.23972952 28.06376354 71.47477453 27.87205263 63.70987892 27.67783928 C57.09870039 27.51251199 50.487469 27.34951698 43.87616382 27.18933135 C40.51688585 27.10788072 37.15765462 27.02513471 33.79846191 26.94020271 C26.69291703 26.76090035 19.58773297 26.60808909 12.48098588 26.48550487 C8.81741002 26.40802061 5.15650415 26.28713993 1.49413109 26.16603279 C-0.90672477 26.11053294 -3.30761034 26.05630049 -5.70852661 26.003479 C-6.82802883 25.95631192 -7.94753105 25.90914483 -9.10095757 25.86054844 C-16.72018422 25.5415397 -16.72018422 25.5415397 -18.2311554 32.32218933 Z " fill="#1C1F3D" transform="translate(83.99287414550781,29.587966918945313)"/>
<path d="M0 0 C1.71901772 -0.00744736 1.71901772 -0.00744736 3.47276306 -0.01504517 C7.2518678 -0.02960673 11.03093044 -0.03646179 14.81005859 -0.04199219 C16.7881872 -0.04629395 18.7663158 -0.05059629 20.74444425 -0.05496669 C26.26258882 -0.06675714 31.78072338 -0.07430653 37.29887927 -0.07776189 C44.37178715 -0.08221793 51.44449941 -0.09965662 58.51734793 -0.12876248 C64.02354382 -0.15061193 69.52968568 -0.16047861 75.03592432 -0.16180301 C78.30511947 -0.16283604 81.57409234 -0.16993512 84.84325027 -0.18662262 C135.08382229 -0.42459581 183.22979816 13.03688003 214.33349609 55.16113281 C214.72601562 55.68980957 215.11853516 56.21848633 215.52294922 56.76318359 C233.65308747 81.52332089 244.43669599 112.47497272 245.33349609 143.16113281 C245.37345703 144.0415625 245.41341797 144.92199219 245.45458984 145.82910156 C247.76905461 235.82093753 175.13104748 278.38694084 96.01245117 288.96606445 C85.93273944 290.32186474 75.88833007 291.8538432 65.84837151 293.47544479 C61.33212101 294.20249849 56.8138535 294.91695163 52.29572773 295.63224602 C48.5015739 296.23428915 44.70924388 296.84520675 40.91958618 297.47497559 C37.30728005 298.07511 33.69209165 298.6532144 30.07375145 299.21578026 C28.72097432 299.43028498 27.36947168 299.65300396 26.01946449 299.88430214 C24.15128862 300.20325757 22.27781144 300.49067975 20.40429688 300.77661133 C19.34848419 300.94806168 18.29267151 301.11951202 17.2048645 301.29615784 C11.02023504 301.00532795 8.75327128 297.06910991 8.13111877 291.3729248 C7.98974802 290.18144836 7.84837727 288.98997192 7.70272255 287.76239014 C7.57000135 286.44958069 7.43728016 285.13677124 7.30053711 283.78417969 C7.14129955 282.37247454 6.98000602 280.96100005 6.81683922 279.54974365 C6.46511037 276.47007259 6.12762267 273.38927532 5.80073357 270.30686951 C5.26675747 265.27400998 4.70180439 260.24490712 4.13246155 255.21594238 C3.40711735 248.7913506 2.68940411 242.36598479 1.9800393 235.93960905 C0.5248128 222.76751452 -0.99945657 209.60405008 -2.54589844 196.44238281 C-2.66905827 195.39363794 -2.79221811 194.34489307 -2.91911006 193.26436806 C-3.42279225 188.97562023 -3.92656602 184.6868832 -4.4306525 180.39818287 C-5.84295514 168.37648219 -7.23858132 156.3528528 -8.63330078 144.32910156 C-9.14617754 139.90770757 -9.65909578 135.48631839 -10.17211914 131.06494141 C-10.299637 129.96591775 -10.42715485 128.86689409 -10.55853689 127.73456669 C-11.61337791 118.64770804 -12.67424022 109.56155818 -13.73598009 100.47550344 C-14.77702523 91.56315726 -15.81283534 82.65021191 -16.84477895 73.73680735 C-17.45378554 68.47777157 -18.06502598 63.21901981 -18.68208504 57.96092224 C-19.25534187 53.07529982 -19.82209145 48.18896573 -20.38391113 43.3020153 C-20.58953646 41.52322365 -20.79747475 39.74469748 -21.0079937 37.96647835 C-24.68143736 6.8983257 -24.68143736 6.8983257 -19.66650391 1.16113281 C-13.1251969 0.00746587 -6.62727887 0.00693593 0 0 Z " fill="#FEFEFE" transform="translate(340.66650390625,128.8388671875)"/>
<path d="M0 0 C0.10740697 4.41264273 0.01370668 8.81242391 -0.07450676 13.22485542 C-1.73776389 43.8400872 -1.73776389 43.8400872 12.39404297 64.65966797 C27.7141886 64.61193846 43.19762107 57.30764869 56.83247375 50.91746521 C59 50 59 50 61 50 C60.88603991 47.56514545 60.64835887 45.25372392 60.3203125 42.84375 C60.18289139 41.74021179 60.18289139 41.74021179 60.04269409 40.61437988 C59.74602388 38.24164518 59.43634796 35.87084992 59.125 33.5 C58.82242291 31.15756107 58.52276552 28.81484029 58.22872925 26.47131348 C58.04490018 25.01026131 57.8560155 23.54983292 57.66116333 22.09020996 C57.40314344 20.06244329 57.20133227 18.03406346 57 16 C56.83198883 14.91827515 56.83198883 14.91827515 56.6605835 13.81469727 C55.97500223 7.13299446 59.28593532 6.27976722 65 5 C65.90279694 4.76809967 66.80559387 4.53619934 67.73574829 4.29727173 C70.88317619 3.5096915 74.04067184 2.78956271 77.20703125 2.08203125 C78.9487989 1.68886971 78.9487989 1.68886971 80.72575378 1.2877655 C83.17333581 0.73769363 85.62162038 0.19073957 88.07055664 -0.35327148 C91.7928597 -1.18312139 95.51061997 -2.03151146 99.22851562 -2.88085938 C101.61693208 -3.41520545 104.00559642 -3.94844498 106.39453125 -4.48046875 C107.49384476 -4.73354294 108.59315826 -4.98661713 109.7257843 -5.24736023 C118.98374605 -7.27167037 127.92002156 -9.01386904 136.46875 -4.02734375 C137.60248047 -3.3828125 138.73621094 -2.73828125 139.90429688 -2.07421875 C141.10300818 -1.36222087 142.30157202 -0.64997467 143.5 0.0625 C144.77530275 0.79669053 146.05202609 1.52841835 147.33007812 2.2578125 C149.952866 3.75786526 152.56870214 5.26905253 155.1796875 6.78955078 C160.90411853 10.11454888 166.70489606 13.30014142 172.5 16.5 C174.70991011 17.72867273 176.91954303 18.95784414 179.12890625 20.1875 C183.98508856 22.88561376 188.84768613 25.57174205 193.71484375 28.25 C194.36131866 28.6059021 195.00779358 28.9618042 195.67385864 29.32849121 C198.78411352 31.04060105 201.89518893 32.75118467 205.0078125 34.45898438 C229.08451898 47.70529096 229.08451898 47.70529096 229.8515625 54.78515625 C229.98046875 55.95626953 230.109375 57.12738281 230.2421875 58.33398438 C230.43167969 60.17959961 230.43167969 60.17959961 230.625 62.0625 C230.7590625 63.26583984 230.893125 64.46917969 231.03125 65.70898438 C231.28320623 68.06271837 231.51077354 70.41921207 231.71191406 72.77783203 C231.88909692 74.75957721 232.11927147 76.73844251 232.43652344 78.70263672 C233.77347758 90.18093522 216.05393491 92.01213731 207.46484375 94.45703125 C206.02120495 94.87590867 204.57783253 95.29570503 203.13470459 95.71633911 C200.03480896 96.61804595 196.93331621 97.51393834 193.83041382 98.40524292 C188.83756704 99.83970643 183.84873072 101.28777383 178.8605957 102.73852539 C177.13438692 103.24047278 175.40817535 103.74241057 173.68196106 104.24433899 C172.81754709 104.49570429 171.95313313 104.74706959 171.0625248 105.00605202 C168.39979944 105.77985276 165.73671224 106.55239675 163.0735321 107.32463074 C145.93740732 112.29542853 128.82952433 117.35986929 111.72583008 122.44094849 C103.22957642 124.96496104 94.73193406 127.48429283 86.234375 130.00390625 C85.39140869 130.25389059 84.54844238 130.50387493 83.67993164 130.76143456 C62.56830705 137.02185805 41.44679048 143.24867366 20.32374477 149.47043514 C16.32124819 150.64938985 12.31881016 151.82854321 8.31640625 153.0078125 C7.51519663 153.2438727 6.71398701 153.4799329 5.88849831 153.72314644 C-7.0642953 157.53994553 -20.01296999 161.37055887 -32.96016502 165.20630264 C-39.04212345 167.00792204 -45.12444881 168.80830248 -51.20673466 170.60881615 C-57.07483008 172.34614386 -62.94225816 174.08570295 -68.80920696 175.82689857 C-72.4541678 176.9080784 -76.09975074 177.98714875 -79.74549675 179.06567764 C-81.43309989 179.56540604 -83.12044324 180.06601277 -84.80749702 180.56759262 C-120.17471479 191.08090833 -120.17471479 191.08090833 -126 185 C-127.01445123 181.88882816 -127.42974712 178.70721939 -127.89111328 175.47412109 C-128.12125626 174.00749779 -128.12125626 174.00749779 -128.35604858 172.51124573 C-128.86071907 169.2676223 -129.34064003 166.02084407 -129.8203125 162.7734375 C-130.1671085 160.50894756 -130.51534584 158.24467793 -130.86495972 155.98062134 C-131.78380016 150.00202826 -132.68135756 144.02041776 -133.57507324 138.0380249 C-134.30136604 133.20023777 -135.04249592 128.36478295 -135.78456306 123.52939415 C-136.67649723 117.71567108 -137.56191111 111.90096264 -138.4453125 106.0859375 C-138.61108921 104.99527355 -138.77686592 103.9046096 -138.94766617 102.78089523 C-140.85201336 90.20766278 -142.62684645 77.64331043 -144 65 C-144.19929611 63.46332169 -144.19929611 63.46332169 -144.40261841 61.89559937 C-145.31881395 50.73843239 -132.98248452 49.98412155 -124.1328125 47.96484375 C-122.90200958 47.67592758 -121.67120667 47.38701141 -120.40310669 47.08934021 C-116.77445868 46.23954377 -113.14236369 45.40535199 -109.50935364 44.57442474 C-106.83822448 43.96296741 -104.16778304 43.34856956 -101.49743652 42.73370361 C-88.84838627 39.82289428 -76.19285068 36.94116256 -63.53417969 34.07250977 C-57.91713302 32.79952205 -52.30120634 31.52166229 -46.68552971 30.24264622 C-42.32988671 29.25132097 -37.97357891 28.26294338 -33.61706924 27.27543449 C-31.5427452 26.8047753 -29.4686536 26.33309045 -27.39480209 25.86035347 C-24.52544403 25.20664357 -21.65519278 24.55701161 -18.78466797 23.90844727 C-17.93399246 23.71372833 -17.08331696 23.5190094 -16.2068634 23.31838989 C-13.07943301 22.61528807 -10.21651617 22 -7 22 C-7.11798197 19.39483062 -7.40297686 17.00300155 -7.8125 14.4375 C-8.62889969 8.45859149 -9.29742808 2.53643272 -9.4375 -3.5 C-9.47746094 -4.7271875 -9.51742187 -5.954375 -9.55859375 -7.21875 C-7.10580031 -19.43125997 -0.51815881 -4.8040391 0 0 Z " fill="#0E0F11" transform="translate(447,537)"/>
<path d="M0 0 C4.70853332 -0.11167556 9.41500333 -0.15624936 14.12475586 -0.17553711 C16.06818939 -0.18704055 18.01159174 -0.20746637 19.95483398 -0.23706055 C72.95218165 -1.03862584 112.49880341 27.1319227 118.66992188 81.72509766 C121.12695982 111.7732624 108.3019166 144.30583313 81.86572266 160.11962891 C81.03298828 160.63009766 80.20025391 161.14056641 79.34228516 161.66650391 C60.34766835 172.22511611 37.12616253 174.26375955 15.86865234 176.61425781 C13.22561557 176.91446259 10.79925079 177.35535001 8.18310547 177.93359375 C0.35810108 179.44987774 0.35810108 179.44987774 -0.99780083 175.78666496 C-1.10800623 174.72767557 -1.21821163 173.66868618 -1.33175659 172.5776062 C-1.46981594 171.3869392 -1.60787529 170.1962722 -1.75011826 168.96952438 C-1.87689075 167.69905888 -2.00366325 166.42859337 -2.13427734 165.11962891 C-2.44019322 162.62720072 -2.74820327 160.13502881 -3.05813599 157.64309692 C-3.38256467 154.87699651 -3.69764951 152.10984501 -4.01367188 149.34277344 C-4.19110311 147.80541192 -4.36874187 146.26807434 -4.54656982 144.73075867 C-5.02402702 140.59716466 -5.49832345 136.46321408 -5.97178888 132.32916117 C-6.36856517 128.86699395 -6.76682633 125.40499813 -7.16504753 121.94299686 C-8.10422809 113.77753161 -9.04073024 105.61176222 -9.97558594 97.44580078 C-10.93847589 89.03542006 -11.9061496 80.62559925 -12.87610924 72.21603119 C-13.7112696 64.97358342 -14.54336175 57.73078754 -15.37302482 50.48770797 C-15.86752484 46.17098087 -16.36319961 41.854397 -16.86188126 37.53815079 C-17.32999827 33.48536438 -17.79427772 29.43215629 -18.25563812 25.37859535 C-18.42518767 23.89458809 -18.59607965 22.41073348 -18.76843643 20.92704964 C-19.00410096 18.89652038 -19.23483449 16.86548716 -19.46438599 14.83425903 C-19.59452654 13.69982424 -19.72466709 12.56538944 -19.8587513 11.39657784 C-20.70571543 1.3232717 -20.70571543 1.3232717 -17.63305664 0.22827148 C-15.84508667 0.21509888 -15.84508667 0.21509888 -14.02099609 0.20166016 C-13.35710373 0.18730423 -12.69321136 0.1729483 -12.00920105 0.15815735 C-10.5253619 0.13056597 -9.04116227 0.11922611 -7.55706787 0.12115479 C-5.03599705 0.11956701 -2.52019966 0.06491022 0 0 Z " fill="#32334C" transform="translate(405.13427734375,189.88037109375)"/>
<path d="M0 0 C1.8630004 0.05517621 3.72613654 0.10592377 5.58937073 0.15254211 C10.68218676 0.29239941 15.77098951 0.49384434 20.86126709 0.70529175 C26.23516153 0.91778945 31.61068807 1.07337441 36.98632812 1.234375 C45.99972589 1.51122686 55.01145359 1.82093732 64.02294922 2.15380859 C77.02672803 2.63290297 90.03204184 3.03463068 103.0390625 3.4140625 C107.20452168 3.53641932 111.36996554 3.65928846 115.53540039 3.7824707 C117.06200051 3.82757357 117.06200051 3.82757357 118.61944103 3.87358761 C128.0815904 4.15478204 137.54280584 4.46253418 147.004076 4.77164459 C200.08058087 6.50108356 253.16957563 7.85380548 306.25462723 9.290061 C439.97685584 12.90813184 439.97685584 12.90813184 491.95546246 14.60282612 C496.37651969 14.74684199 500.7976175 14.88956408 505.21875 15.03125 C506.05800585 15.05816862 506.8972617 15.08508724 507.76194954 15.11282158 C520.51258124 15.51834748 533.26395483 15.83210321 546.01814651 16.10184669 C548.90522554 16.16321047 551.79226164 16.22629861 554.67929077 16.28996277 C556.5537711 16.33112504 558.42825229 16.37224787 560.30273438 16.41333008 C561.2169346 16.43338576 562.13113483 16.45344145 563.0730381 16.47410488 C568.38284575 16.58893856 573.69268091 16.68962507 579.00297642 16.77891827 C582.18184632 16.83507856 585.36038579 16.90297684 588.53895378 16.97405052 C590.00858572 17.00417408 591.47833764 17.02895593 592.94815254 17.04818153 C594.93774638 17.07463931 596.92705224 17.1206713 598.91625977 17.16796875 C600.02711441 17.18778809 601.13796906 17.20760742 602.28248596 17.22802734 C604.62890625 17.64453125 604.62890625 17.64453125 604.62890625 20.64453125 C602.21991977 24.21181725 599.69872638 24.02121764 595.60588074 24.02378845 C594.33804182 24.03131826 593.0702029 24.03884808 591.76394463 24.04660606 C590.34807961 24.03929107 588.93221715 24.0314683 587.51635742 24.02319336 C586.01694666 24.02472962 584.51753667 24.02732054 583.01812935 24.03087807 C578.88290819 24.03564083 574.74801858 24.01895668 570.61286187 23.99706388 C567.96873823 23.98429951 565.32464928 23.97687284 562.68050194 23.97099113 C517.47022165 23.86165847 472.2789308 22.67331644 427.08696449 21.47416532 C416.79861557 21.2017126 406.50997383 20.94146836 396.2212801 20.68241978 C386.22504823 20.43073325 376.22892614 20.17478733 366.23283362 19.91763186 C364.12633579 19.86348426 362.01983472 19.80946236 359.91333032 19.75557065 C353.9534076 19.60304191 347.99355498 19.44817403 342.03378868 19.28964615 C340.2510107 19.24253314 338.46821335 19.1961457 336.68539429 19.15061378 C327.66785665 18.91969617 318.66189227 18.61384602 309.65292358 18.15501404 C296.63754124 17.50055476 283.6144982 17.21339052 270.5871582 16.90429688 C267.82824015 16.83729589 265.06934052 16.76954936 262.31044006 16.701828 C256.4095398 16.55734718 250.50860018 16.41458078 244.60762978 16.272995 C236.04792692 16.06758084 227.48830165 15.85906478 218.92869272 15.64977747 C204.99750742 15.30920027 191.06627692 14.97051239 177.13500977 14.63330078 C176.30437077 14.61319429 175.47373178 14.5930878 174.61792191 14.57237202 C171.25344968 14.4909351 167.88897729 14.40950464 164.52450471 14.32808205 C155.27455001 14.10421731 146.02460202 13.88007573 136.7746582 13.65576172 C135.94656913 13.63568088 135.11848007 13.61560003 134.26529739 13.59491068 C120.38566334 13.25828459 106.50606533 12.92019135 92.62648934 12.5811801 C84.10409716 12.37309651 75.58167461 12.16634973 67.05920585 11.96142614 C61.20542254 11.82059473 55.35167209 11.67844751 49.49794421 11.53533089 C46.13873134 11.45325039 42.77950479 11.3719443 39.42024231 11.29190636 C22.48299093 10.88795765 5.55653591 10.34610479 -11.37109375 9.64453125 C-11.18224205 11.32574368 -10.99334463 13.00695098 -10.8044281 14.68815613 C-10.69924079 15.624379 -10.59405348 16.56060186 -10.48567867 17.52519512 C-9.4184577 26.99972217 -8.27982685 36.46102654 -7.0365181 45.91388893 C-4.7358512 63.40989887 -2.63441742 80.92007877 -0.68434334 98.45873833 C2.08208458 123.30176201 4.95633487 148.13125774 7.90625 172.953125 C7.99865463 173.73077878 8.09105927 174.50843256 8.18626404 175.30965161 C9.34223055 185.03618815 10.50117685 194.76236857 11.66112542 204.48843092 C12.79928655 214.03282936 13.93453874 223.57757361 15.06982422 233.12231445 C15.49357545 236.68467901 15.91734604 240.24704126 16.34112549 243.80940247 C16.44631972 244.69369444 16.55151396 245.57798642 16.6598959 246.48907512 C17.4038915 252.74301102 18.14823596 258.99690534 18.89276123 265.2507782 C22.76980016 297.81764456 26.63704472 330.38566732 30.49780715 362.95446706 C31.08311082 367.89183129 31.6686913 372.82916264 32.25439453 377.76647949 C35.38660828 404.1712163 38.51381215 430.5764732 41.5859375 456.98828125 C41.6964872 457.93807169 41.8070369 458.88786213 41.92093658 459.8664341 C42.9162182 468.41761856 43.91032119 476.96892762 44.89449406 485.52139854 C45.2269167 488.40673706 45.56127985 491.29184845 45.89609337 494.1769104 C46.11655353 496.08321393 46.33418914 497.98984346 46.55171204 499.89648438 C46.68087509 501.00789795 46.81003815 502.11931152 46.94311523 503.2644043 C47.05251938 504.21623093 47.16192352 505.16805756 47.27464294 506.14872742 C47.59078426 508.37595981 48.08028168 510.46711029 48.62890625 512.64453125 C48.69579216 514.56014379 48.71422344 516.47788717 48.69140625 518.39453125 C48.68238281 519.379375 48.67335938 520.36421875 48.6640625 521.37890625 C48.65246094 522.1265625 48.64085938 522.87421875 48.62890625 523.64453125 C49.85226685 523.36713104 51.07562744 523.08973083 52.33605957 522.80392456 C58.31096981 521.4771185 64.31143761 520.28621636 70.31445312 519.09423828 C72.2210743 518.71434876 74.12769531 518.33445843 76.03431034 517.95453811 C78.06824996 517.54942213 80.1022824 517.14477506 82.13633728 516.74023819 C86.4014365 515.89187199 90.66614681 515.0415621 94.93078613 514.19088745 C107.05298254 511.77309989 119.17549276 509.3568948 131.29882812 506.94482422 C138.00670558 505.61020144 144.71415374 504.27344225 151.42115068 502.93440139 C154.95748903 502.22847458 158.49402994 501.52360327 162.03111267 500.82141495 C181.73070182 496.91907097 181.73070182 496.91907097 201.30407715 492.43611145 C206.70752613 491.14965037 212.16112325 490.17534133 217.62890625 489.20703125 C219.98722233 488.77868035 222.34529072 488.34896379 224.703125 487.91796875 C225.8689209 487.70495117 227.0347168 487.49193359 228.23583984 487.27246094 C240.4672933 485.00887637 252.65231079 482.50155009 264.81640625 479.90234375 C267.85794342 479.25329757 270.89961402 478.60488107 273.94140625 477.95703125 C274.72098694 477.79087311 275.50056763 477.62471497 276.30377197 477.45352173 C293.3852812 473.82300163 310.53181999 470.54344056 327.69458008 467.3215332 C338.2337728 465.33182784 348.724021 463.21179481 359.1844635 460.84115601 C373.22243686 457.69376253 387.30816514 454.82227495 401.41577148 452.00634766 C404.07343831 451.47399624 406.73093472 450.94079607 409.38844299 450.40765381 C415.77645309 449.12666008 422.16506867 447.8487129 428.55393516 446.57199796 C433.74414238 445.5347719 438.93413326 444.49646973 444.12397957 443.45743942 C444.86851398 443.30838285 445.6130484 443.15932629 446.38014447 443.00575285 C447.89335037 442.70280533 449.40655603 442.39985653 450.91976143 442.09690647 C465.01257942 439.27561589 479.1061232 436.45796504 493.19990904 433.64151399 C506.09047527 431.06539712 518.9801488 428.48484417 531.86941396 425.90222616 C545.14960798 423.24131515 558.43036539 420.58323391 571.71175343 417.92828882 C579.15096279 416.44114521 586.58994807 414.95290242 594.02834892 413.46171951 C600.34084398 412.19628414 606.65386886 410.93353411 612.9676007 409.67428334 C616.18682541 409.03214526 619.40570335 408.38835182 622.62409592 407.74205399 C626.1084771 407.04255738 629.59376425 406.34776901 633.07933044 405.65420532 C634.61006161 405.34517759 634.61006161 405.34517759 636.17171663 405.02990687 C637.10354676 404.8455037 638.03537689 404.66110053 638.9954443 404.47110939 C639.79948537 404.31032264 640.60352644 404.1495359 641.43193239 403.98387682 C643.62890625 403.64453125 643.62890625 403.64453125 647.62890625 403.64453125 C647.29890625 402.98453125 646.96890625 402.32453125 646.62890625 401.64453125 C646.3331971 399.64855242 646.08799723 397.64502692 645.86554623 395.63956165 C645.72073596 394.35104008 645.57592569 393.06251852 645.42672724 391.73495084 C645.26845936 390.2914733 645.11026396 388.84798781 644.95213318 387.40449524 C644.78247975 385.88154544 644.61249083 384.35863299 644.44219357 382.83575505 C643.9735104 378.63558666 643.50966162 374.43489608 643.04657805 370.23410714 C642.54695817 365.70946108 642.04293021 361.18530588 641.53945923 356.66108704 C640.55305963 347.79064883 639.57083838 338.91975268 638.59009033 330.04868803 C637.79293876 322.83897594 636.99429201 315.62943094 636.19456673 308.42000389 C636.08091241 307.39541227 635.96725808 306.37082065 635.85015969 305.3151808 C635.61928769 303.23393361 635.38841221 301.15268679 635.1575333 299.07144036 C632.99018443 279.53236605 630.82755645 259.99277142 628.66652936 240.45299705 C626.81170292 223.68285714 624.9528595 206.91316648 623.09106445 190.14379883 C620.93059195 170.68419657 618.77260471 151.22432136 616.61858708 131.76400346 C616.38887125 129.68871443 616.15915224 127.61342575 615.92943001 125.53813744 C615.81639647 124.5169916 615.70336294 123.49584576 615.58690415 122.44375611 C614.78980769 115.24434769 613.99093285 108.04513788 613.19137383 100.84600258 C612.21673885 92.07006138 611.2448346 83.2938229 610.27643161 74.51719175 C609.78215882 70.03823011 609.28665941 65.55941326 608.78783989 61.08095551 C608.33122628 56.98110811 607.87815262 52.88088554 607.42789877 48.78033497 C607.26439269 47.29695594 607.09959503 45.81371859 606.93337529 44.33064119 C606.7075202 42.31372273 606.48685004 40.29622569 606.26642513 38.27870655 C606.08041584 36.59836157 606.08041584 36.59836157 605.89064878 34.88407022 C605.02104408 24.12113342 605.02104408 24.12113342 609.00390625 21.70703125 C609.94363281 21.10568359 609.94363281 21.10568359 610.90234375 20.4921875 C612.62890625 19.64453125 612.62890625 19.64453125 614.62890625 19.64453125 C615.79362821 21.97397517 615.95287491 23.75745897 616.22973633 26.34912109 C616.33687454 27.33391449 616.44401276 28.31870789 616.55439758 29.33334351 C616.66793076 30.41314484 616.78146393 31.49294617 616.8984375 32.60546875 C617.02071213 33.73804108 617.14298676 34.8706134 617.26896667 36.0375061 C617.66340497 39.69780225 618.05258084 43.35863501 618.44140625 47.01953125 C618.81795867 50.53402053 619.19562182 54.04838915 619.57342529 57.56274414 C619.83641549 60.0094767 620.09897426 62.45625567 620.36114502 64.90307617 C621.38633117 74.45241366 622.4423217 83.99806114 623.5078125 93.54296875 C625.07644665 107.60011192 626.61395326 121.66047259 628.13671875 135.72265625 C628.35285774 137.71753966 628.56899849 139.71242288 628.78514099 141.70730591 C629.66617238 149.84089746 630.54656252 157.97455796 631.42529297 166.10839844 C631.97342505 171.18156784 632.52285869 176.25459495 633.07308578 181.32753754 C633.27846373 183.22336357 633.48336919 185.11924086 633.68774796 187.01517487 C634.74666485 196.83718528 635.86487928 206.64467813 637.11038208 216.44488525 C638.20007736 225.15085589 639.12605792 233.8770697 640.08984375 242.59765625 C640.32392776 244.70816107 640.55811172 246.8186548 640.79238892 248.92913818 C641.40665604 254.4651225 642.01961012 260.00125141 642.63226318 265.53741455 C643.24235339 271.04846592 643.85363288 276.55938533 644.46484375 282.0703125 C645.18117321 288.52966038 645.89732931 294.98902727 646.61265564 301.44848633 C647.67110436 311.00628912 648.73032462 320.56400079 649.79516602 330.12109375 C652.69573273 356.15816201 652.69573273 356.15816201 653.859375 367.11328125 C653.94298279 367.89975037 654.02659058 368.68621948 654.11273193 369.496521 C654.43160986 372.50157164 654.74965044 375.50670086 655.06420898 378.51220703 C655.30591343 380.81700629 655.55109757 383.12141329 655.796875 385.42578125 C656.00219849 387.37581055 656.00219849 387.37581055 656.21166992 389.36523438 C656.53345466 391.89432305 656.95329789 394.19836306 657.62890625 396.64453125 C657.9375 398.93359375 657.9375 398.93359375 658.06640625 401.26953125 C658.12699219 402.04554688 658.18757812 402.8215625 658.25 403.62109375 C656.67796238 408.74257479 645.2166494 409.02551184 640.44140625 409.95703125 C639.35512939 410.17214355 638.26885254 410.38725586 637.1496582 410.60888672 C627.78908197 412.44958839 618.40910429 414.18533304 609.0168457 415.85668945 C603.85293124 416.79094639 598.76210891 417.82615199 593.6796875 419.13671875 C586.0931618 421.08879997 578.40557024 422.39039824 570.6953125 423.75 C564.2328188 424.9122125 557.90173222 426.29885059 551.54492188 427.93945312 C546.78136609 429.0912573 541.96410668 429.86026732 537.12890625 430.64453125 C530.22337245 431.80464328 523.43494569 433.06486608 516.6640625 434.8671875 C504.55875778 437.96751651 492.23053917 440.10905534 479.92138672 442.21240234 C470.23635793 443.86993472 460.5746272 445.57703253 451.06640625 448.08203125 C444.2713074 449.84578642 437.37103067 451.00950985 430.45678711 452.19897461 C426.60725791 452.87099544 422.88060139 453.57221795 419.12109375 454.65234375 C414.48827465 455.96860331 409.81577523 456.68605062 405.06640625 457.45703125 C397.48114824 458.73043808 389.98611905 460.17716607 382.50390625 461.95703125 C372.39304543 464.34894937 362.21435033 466.29779835 352.00390625 468.20703125 C351.19637909 468.3581839 350.38885193 468.50933655 349.55685425 468.66506958 C346.38844989 469.25787861 343.21994526 469.85014642 340.05125427 470.44142151 C328.19054782 472.65655531 316.35704666 474.87408432 304.6796875 477.9296875 C300.11889767 478.99834888 295.50989096 479.74271896 290.89233398 480.52197266 C286.87108272 481.2122509 282.94708154 482.0186385 279.00390625 483.08203125 C273.30584137 484.58438989 267.56066188 485.55053999 261.75390625 486.51953125 C252.80407039 488.01592683 243.98736215 489.85308949 235.15380859 491.92260742 C229.507047 493.23929258 223.87738499 494.36940882 218.14453125 495.25390625 C212.05399562 496.1996416 206.08641667 497.51081971 200.12890625 499.08203125 C195.28647801 500.32022176 190.43895716 501.19377865 185.50390625 501.95703125 C178.64383766 503.03585317 171.93601196 504.47369593 165.1875 506.1015625 C145.44222358 510.75074642 125.52794114 514.63565906 105.64477539 518.64208984 C99.90079979 519.79966415 94.15843392 520.96502592 88.4164381 522.13237572 C83.96395399 523.03652879 79.51057143 523.93619031 75.05690956 524.83452225 C72.93671763 525.26283054 70.81682868 525.69264157 68.69725609 526.12400436 C65.75636099 526.72192079 62.81428887 527.31366225 59.87182617 527.90380859 C59.00492661 528.08139709 58.13802704 528.2589856 57.24485779 528.44195557 C46.5533351 530.5689601 46.5533351 530.5689601 44.62890625 528.64453125 C44.18286619 525.45807239 43.79843389 522.27907485 43.44140625 519.08203125 C43.17338744 516.76154356 42.90371143 514.44124697 42.6328125 512.12109375 C42.55707001 511.47096817 42.48132751 510.82084259 42.40328979 510.15101624 C41.75077151 504.58975659 41.05216832 499.03485526 40.34375 493.48046875 C37.0352244 467.49432163 33.97647036 441.48683677 31.07714844 415.45239258 C28.68936919 394.01775996 26.14470186 372.60724177 23.43530273 351.2109375 C21.27382702 334.14142836 19.18292026 317.07028125 17.33029175 299.9644165 C16.08974012 288.52908546 14.70677502 277.11722827 13.25390625 265.70703125 C11.24396774 249.9090908 9.40412196 234.09549876 7.62890625 218.26953125 C5.83425648 202.28567366 4.03093758 186.30351998 2.12890625 170.33203125 C2.02949738 169.49678925 1.9300885 168.66154724 1.82766724 167.80099487 C0.62914683 157.75471276 -0.60769858 147.71361548 -1.875 137.67578125 C-2.0031459 136.66067474 -2.13129181 135.64556824 -2.26332092 134.59970093 C-2.52347509 132.5395097 -2.78363236 130.47931886 -3.04379272 128.41912842 C-3.17242706 127.40038635 -3.3010614 126.38164429 -3.43359375 125.33203125 C-3.56134186 124.32086243 -3.68908997 123.3096936 -3.82070923 122.2678833 C-5.98735404 105.08329278 -7.90790611 87.88130207 -9.72747803 70.65708923 C-11.41215854 54.77468738 -13.39533829 38.94129645 -15.72265625 23.140625 C-15.83254883 22.37862793 -15.94244141 21.61663086 -16.05566406 20.83154297 C-16.25762046 19.43129111 -16.46481413 18.03177846 -16.67871094 16.63330078 C-16.8570037 15.38181074 -17.00438974 14.1252924 -17.11198425 12.86575317 C-17.33017148 10.56862458 -17.33017148 10.56862458 -18.02223206 8.08563232 C-20.00727645 -3.35217046 -7.96735382 -0.3901684 0 0 Z " fill="#0F1C89" transform="translate(78.37109375,46.35546875)"/>
<path d="M0 0 C1.13665069 2.66589677 1.40336773 4.10875247 1.55078125 6.91796875 C1.62004318 7.63745697 1.68930511 8.35694519 1.76066589 9.09823608 C1.98051508 11.45965659 2.14587462 13.82178164 2.3125 16.1875 C2.45661042 17.81866607 2.60506279 19.44945425 2.7578125 21.07983398 C3.05683064 24.2920794 3.34024537 27.50505083 3.61181641 30.71972656 C4.0461214 35.69991997 4.71990833 40.62555257 5.5 45.5625 C7.36203492 57.94081466 8.72698857 70.38155838 10.16473389 82.81452942 C11.14916843 91.31580591 12.16403211 99.8134187 13.1789856 108.31109619 C13.71548038 112.80492218 14.25028705 117.29894903 14.78515625 121.79296875 C14.889384 122.6686853 14.99361176 123.54440186 15.10099792 124.44665527 C15.30474834 126.15858849 15.50848904 127.87052287 15.71221924 129.5824585 C15.97967365 131.82924569 16.24738238 134.07600244 16.51513672 136.32275391 C18.17741596 150.27939058 19.80795896 164.23891487 21.37109375 178.20703125 C23.90213489 200.80518441 26.50613297 223.38686388 29.37445068 245.94488525 C31.52737926 262.90169409 33.4811958 279.87624724 35.375 296.86376953 C37.13097161 312.5920621 39.00343966 328.30048451 41 344 C43.28094282 361.9356949 45.37137742 379.88691648 47.37399292 397.85571289 C49.25849205 414.74097278 51.29503119 431.60134624 53.43835449 448.45556641 C55.57695756 465.29855216 57.51972275 482.15812711 59.35180664 499.03710938 C59.44750946 499.91426102 59.54321228 500.79141266 59.64181519 501.69514465 C59.82578239 503.39391955 60.00656674 505.09304273 60.18386841 506.79252625 C60.60941716 510.79970629 61.10260574 514.77388753 61.75317383 518.7512207 C61.86844421 519.4944458 61.9837146 520.2376709 62.10247803 521.00341797 C62.41975497 523.00775349 62.76466571 525.00765982 63.11157227 527.00708008 C62.96148149 531.03325681 61.9460361 531.24681454 58.1875 532.1875 C53.43232445 531.91858662 52.30878169 530.9777907 52 526.25 C52.020625 525.34765625 52.04125 524.4453125 52.0625 523.515625 C52.00857158 520.48215135 51.66896813 517.96524033 51.08984375 515.0078125 C49.78971755 508.25218755 49.18720588 501.47086331 48.5625 494.625 C47.56459441 484.07088542 46.34940242 473.58167095 44.74609375 463.1015625 C42.49396418 448.10909412 40.92070162 433.0014259 39.14257812 417.94726562 C38.85986437 415.55709793 38.5771024 413.16693594 38.29429626 410.77677917 C37.61038705 404.99574168 36.92694861 399.21464867 36.24369991 393.43353307 C35.44560055 386.68096956 34.64680338 379.92848866 33.84794456 373.17601496 C32.42120934 361.11624768 30.9948654 349.05643417 29.56884766 336.99658203 C29.48377545 336.2771264 29.39870325 335.55767078 29.3110531 334.81641346 C28.62098683 328.98049767 27.9309397 323.14457961 27.24089336 317.30866146 C26.63765531 312.20691257 26.0344096 307.10516459 25.43115234 302.00341797 C25.34618573 301.28485408 25.26121911 300.56629019 25.17367774 299.82595164 C23.75242537 287.80651144 22.33075516 275.7871207 20.90879202 263.76776457 C20.11253123 257.03709509 19.31649518 250.30639917 18.52101135 243.57563782 C17.77286937 237.2455008 17.02424796 230.91542067 16.27527046 224.58538246 C16.00178737 222.27325422 15.72848394 219.96110472 15.45538139 217.6489315 C14.1404937 206.51743662 12.81647467 195.38779399 11.4114542 184.26727486 C10.34196174 175.77465087 9.34686688 167.27275903 8.34057617 158.77246094 C8.0714149 156.50374609 7.80090256 154.23519113 7.52905273 151.96679688 C4.76371449 128.88628284 4.76371449 128.88628284 4.21313477 118.46337891 C4.08488551 115.86586498 4.08488551 115.86586498 3 113 C2.69012964 109.41927579 2.49054416 105.83789986 2.28125 102.25 C2.12649029 98.9907069 2.12649029 98.9907069 1 96 C0.79469905 94.33738702 0.63179926 92.66941276 0.4921875 91 C0.34777222 89.36973877 0.34777222 89.36973877 0.20043945 87.70654297 C0.09304443 86.48338379 -0.01435059 85.26022461 -0.125 84 C-1.16367932 72.6431128 -2.40478727 61.31641362 -3.75390625 49.9921875 C-3.83232002 49.3339222 -3.9107338 48.67565689 -3.99152374 47.99744415 C-4.79373859 41.27332264 -5.60461883 34.55026769 -6.42247486 27.82803154 C-6.6583786 25.88628988 -6.89291485 23.94438224 -7.12742615 22.00247192 C-7.41876824 19.59124074 -7.7126433 17.18031385 -8.00941467 14.76974487 C-8.1399675 13.68798981 -8.27052032 12.60623474 -8.4050293 11.49169922 C-8.52033493 10.54817596 -8.63564056 9.60465271 -8.75444031 8.63253784 C-9.4457298 1.22152621 -8.50689081 -2.11206244 0 0 Z " fill="#515264" transform="translate(61,47)"/>
<path d="M0 0 C1.16472196 2.32944392 1.32396866 4.11292772 1.60083008 6.70458984 C1.70796829 7.68938324 1.81510651 8.67417664 1.92549133 9.68881226 C2.03902451 10.76861359 2.15255768 11.84841492 2.26953125 12.9609375 C2.39180588 14.09350983 2.51408051 15.22608215 2.64006042 16.39297485 C3.03449872 20.053271 3.42367459 23.71410376 3.8125 27.375 C4.18905242 30.88948928 4.56671557 34.4038579 4.94451904 37.91821289 C5.20750924 40.36494545 5.47006801 42.81172442 5.73223877 45.25854492 C6.75742492 54.80788241 7.81341545 64.35352989 8.87890625 73.8984375 C10.4475404 87.95558067 11.98504701 102.01594134 13.5078125 116.078125 C13.72395149 118.07300841 13.94009224 120.06789163 14.15623474 122.06277466 C15.03726613 130.19636621 15.91765627 138.33002671 16.79638672 146.46386719 C17.3445188 151.53703659 17.89395244 156.6100637 18.44417953 161.68300629 C18.64955748 163.57883232 18.85446294 165.47470961 19.05884171 167.37064362 C20.1177586 177.19265403 21.23597303 187.00014688 22.48147583 196.800354 C23.57117111 205.50632464 24.49715167 214.23253845 25.4609375 222.953125 C25.69502151 225.06362982 25.92920547 227.17412355 26.16348267 229.28460693 C26.77774979 234.82059125 27.39070387 240.35672016 28.00335693 245.8928833 C28.61344714 251.40393467 29.22472928 256.91485379 29.8359375 262.42578125 C30.78439353 270.97861868 31.73226182 279.53152103 32.6796875 288.08447266 C33.77121562 297.93772404 34.86405377 307.79082915 35.9587059 317.64373398 C36.12545515 319.14463863 36.29217572 320.64554648 36.45886612 322.14645767 C37.2962354 329.68594787 38.13628482 337.22511912 38.98532104 344.76330566 C39.33030194 347.83339145 39.67126098 350.90391105 40.01074219 353.97460938 C40.17545099 355.45497175 40.34223784 356.93510391 40.51074219 358.41503906 C42.44789073 375.460506 42.44789073 375.460506 42 383 C41.34 383 40.68 383 40 383 C40 383.66 40 384.32 40 385 C32.44399794 384.17570887 32.0506223 383.33333519 31.23663998 375.9950304 C31.01942458 374.06224805 31.01942458 374.06224805 30.79782099 372.09041959 C30.63955311 370.64694205 30.48135771 369.20345656 30.32322693 367.75996399 C30.1535735 366.23701419 29.98358458 364.71410174 29.81328732 363.1912238 C29.34460415 358.99105541 28.88075537 354.79036483 28.4176718 350.58957589 C27.91805192 346.06492983 27.41402396 341.54077463 26.91055298 337.01655579 C25.92415338 328.14611758 24.94193213 319.27522143 23.96118408 310.40415678 C23.16403251 303.19444469 22.36538576 295.98489969 21.56566048 288.77547264 C21.45200616 287.75088102 21.33835183 286.7262894 21.22125344 285.67064955 C20.99038144 283.58940236 20.75950596 281.50815554 20.52862705 279.42690911 C18.36127818 259.8878348 16.1986502 240.34824017 14.03762311 220.8084658 C12.18279667 204.03832589 10.32395325 187.26863523 8.4621582 170.49926758 C6.3016857 151.03966532 4.14369846 131.57979011 1.98968083 112.11947221 C1.759965 110.04418318 1.53024599 107.9688945 1.30052376 105.89360619 C1.18749022 104.87246035 1.07445669 103.85131451 0.9579979 102.79922486 C0.16090144 95.59981644 -0.6379734 88.40060663 -1.43753242 81.20147133 C-2.4121674 72.42553013 -3.38407165 63.64929165 -4.35247464 54.8726605 C-4.84674743 50.39369886 -5.34224684 45.91488201 -5.84106636 41.43642426 C-6.29767997 37.33657686 -6.75075363 33.23635429 -7.20100748 29.13580372 C-7.36451356 27.65242469 -7.52931122 26.16918734 -7.69553096 24.68610994 C-7.92138605 22.66919148 -8.14205621 20.65169444 -8.36248112 18.6341753 C-8.48648731 17.51394531 -8.61049351 16.39371532 -8.73825747 15.23953897 C-9.60786217 4.47660217 -9.60786217 4.47660217 -5.625 2.0625 C-4.99851562 1.66160156 -4.37203125 1.26070313 -3.7265625 0.84765625 C-2 0 -2 0 0 0 Z " fill="#192ABE" transform="translate(693,66)"/>
<path d="M0 0 C-1.53699891 3.07399781 -3.71624492 2.50433886 -7 3 C-7.928125 3.309375 -8.85625 3.61875 -9.8125 3.9375 C-12.3669575 4.78898583 -14.75022249 5.39723705 -17.375 5.9375 C-21.14967192 6.73684229 -24.58296147 7.92829505 -28.1640625 9.34375 C-30.72711998 10.25990672 -33.31327808 10.59984993 -36 11 C-38.34119555 11.63850788 -40.67451993 12.30643577 -43 13 C-44.2375 13.350625 -45.475 13.70125 -46.75 14.0625 C-48.84569226 14.66702661 -50.93078744 15.31026248 -53 16 C-53.66 15.67 -54.32 15.34 -55 15 C-55 15.66 -55 16.32 -55 17 C-56.99866686 17.34123581 -58.99902542 17.6725678 -61 18 C-62.69728176 18.73091627 -64.39400503 19.46324079 -66.0847168 20.20922852 C-69.19289323 21.49251513 -72.38421275 22.3655489 -75.625 23.25 C-76.89601563 23.60578125 -78.16703125 23.9615625 -79.4765625 24.328125 C-82.82275749 24.96620209 -84.77835174 24.96279143 -88 24 C-88 24.66 -88 25.32 -88 26 C-89.99005807 26.38830401 -91.9935269 26.70814937 -94 27 C-98.07852675 28.03962447 -101.95515128 29.3628042 -105.875 30.875 C-111.47839843 32.95781662 -117.15970661 34.31828333 -122.98583984 35.60498047 C-127.09411022 36.51697247 -131.01568415 37.62520352 -135 39 C-137.7219245 39.83718889 -140.45434877 40.63782294 -143.1875 41.4375 C-144.30753418 41.76572754 -144.30753418 41.76572754 -145.45019531 42.10058594 C-160.78179874 46.57643566 -160.78179874 46.57643566 -165.30908203 47.44091797 C-168.04207034 48.0087408 -170.67517793 48.73185752 -173.3515625 49.5234375 C-174.36863281 49.8225 -175.38570313 50.1215625 -176.43359375 50.4296875 C-177.48675781 50.74164062 -178.53992188 51.05359375 -179.625 51.375 C-200.12868438 57.43115709 -200.12868438 57.43115709 -205.5090332 58.49707031 C-208.02171272 59.00438383 -210.43603889 59.65861288 -212.89453125 60.3828125 C-213.83925293 60.65971924 -214.78397461 60.93662598 -215.75732422 61.22192383 C-216.76553223 61.51993896 -217.77374023 61.8179541 -218.8125 62.125 C-220.95694078 62.75681757 -223.10147495 63.3883182 -225.24609375 64.01953125 C-226.90487549 64.50800537 -226.90487549 64.50800537 -228.59716797 65.00634766 C-232.00974083 66.0028444 -235.42753618 66.97896845 -238.84765625 67.94921875 C-239.94166748 68.26165527 -241.03567871 68.5740918 -242.1628418 68.89599609 C-244.27616778 69.49897745 -246.3908879 70.09709748 -248.50708008 70.68994141 C-249.46122803 70.96370605 -250.41537598 71.2374707 -251.3984375 71.51953125 C-252.24067871 71.75776611 -253.08291992 71.99600098 -253.95068359 72.24145508 C-256.1845634 72.90611008 -256.1845634 72.90611008 -258 75 C-258 74.34 -258 73.68 -258 73 C-263.35403085 74.33014204 -263.57618916 75.73875223 -263 81.0625 C-262.94545654 81.69357666 -262.89091309 82.32465332 -262.8347168 82.97485352 C-262.40331405 87.54048823 -261.66633939 92.03548795 -260.89453125 96.5546875 C-260.62866211 98.25612915 -260.62866211 98.25612915 -260.35742188 99.99194336 C-259.99373279 102.29155985 -259.58723388 104.58480649 -259.13867188 106.86938477 C-257.93311604 114.6501041 -257.93311604 114.6501041 -261.18115234 115.71533203 C-263.87433954 115.72245812 -266.35343429 115.48546127 -269 115 C-267.515 114.505 -267.515 114.505 -266 114 C-265.946691 111.26119461 -265.946691 111.26119461 -266.546875 107.98046875 C-266.7325 106.72943359 -266.918125 105.47839844 -267.109375 104.18945312 C-267.3221786 102.85535081 -267.53572423 101.52136665 -267.75 100.1875 C-268.52556929 95.12844111 -269.28187036 90.06755 -270 85 C-270.16838379 83.83154541 -270.33676758 82.66309082 -270.51025391 81.45922852 C-270.70240479 79.84745728 -270.70240479 79.84745728 -270.8984375 78.203125 C-271.01880371 77.25469727 -271.13916992 76.30626953 -271.26318359 75.32910156 C-270.66638282 70.04758083 -264.36178462 69.89218322 -260 69 C-258.48823498 68.64369402 -256.97789565 68.28130468 -255.46875 67.9140625 C-252.88016997 67.28761293 -250.29088812 66.66808544 -247.69580078 66.0690918 C-240.32403571 64.36428216 -233.03434239 62.41977503 -225.75 60.375 C-224.19804932 59.94127075 -224.19804932 59.94127075 -222.61474609 59.4987793 C-218.12714759 58.22905504 -213.67476154 56.91608684 -209.26171875 55.40625 C-205.93575834 54.27573646 -202.62390344 53.36067709 -199.19546509 52.59921265 C-192.91343251 51.20255627 -186.69064883 49.67998886 -180.49609375 47.9296875 C-171.8209807 45.49567312 -163.13088115 43.11775431 -154.4375 40.75 C-153.0168374 40.362876 -151.59617804 39.97574007 -150.17552185 39.58859253 C-145.0444533 38.19050237 -139.91315453 36.79325786 -134.78186035 35.39599609 C-130.40476507 34.20406342 -126.02777425 33.0117484 -121.65090942 31.81896973 C-119.64749821 31.27315705 -117.64394474 30.72786911 -115.64038086 30.18261719 C-108.81397384 28.32249428 -101.99277737 26.44536884 -95.17675781 24.54760742 C-86.79944976 22.21570371 -78.41178391 19.92316758 -70.02016449 17.64336586 C-67.53013639 16.96674972 -65.04033672 16.28929875 -62.55059814 15.61161804 C-55.48801114 13.68928923 -48.42527055 11.76752912 -41.36181641 9.84838867 C-37.0029397 8.66401828 -32.64451702 7.47799 -28.28638458 6.29088402 C-26.63919071 5.84254546 -24.99182877 5.39482389 -23.34429169 4.94774818 C-21.05038715 4.32521224 -18.75706769 3.70056303 -16.46386719 3.07543945 C-15.79371078 2.89411972 -15.12355438 2.71279999 -14.43309021 2.52598572 C-11.47869685 1.71851433 -8.60104277 0.85494236 -5.7210083 -0.19221497 C-3 -1 -3 -1 0 0 Z " fill="#262629" transform="translate(594,610)"/>
<path d="" fill="#E5F5FF" transform="translate(0,0)"/>
<path d="" fill="#E5F5FF" transform="translate(0,0)"/>
<path d="" fill="#E5F5FF" transform="translate(0,0)"/>
<path d="" fill="#E5F5FF" transform="translate(0,0)"/>
<path d="" fill="#E5F5FF" transform="translate(0,0)"/>
<path d="" fill="#E5F5FF" transform="translate(0,0)"/>
<path d="" fill="#E5F5FF" transform="translate(0,0)"/>
<path d="" fill="#E5F5FF" transform="translate(0,0)"/>
<path d="" fill="#E5F5FF" transform="translate(0,0)"/>
<path d="" fill="#E5F5FF" transform="translate(0,0)"/>
<path d="" fill="#E5F5FF" transform="translate(0,0)"/>
<path d="" fill="#E5F5FF" transform="translate(0,0)"/>
<path d="" fill="#E5F5FF" transform="translate(0,0)"/>
<path d="" fill="#E5F5FF" transform="translate(0,0)"/>
<path d="" fill="#E5F5FF" transform="translate(0,0)"/>
<path d="" fill="#E5F5FF" transform="translate(0,0)"/>
<path d="" fill="#E5F5FF" transform="translate(0,0)"/>
<path d="" fill="#E5F5FF" transform="translate(0,0)"/>
<path d="" fill="#E5F5FF" transform="translate(0,0)"/>
<path d="" fill="#E5F5FF" transform="translate(0,0)"/>
<path d="" fill="#E5F5FF" transform="translate(0,0)"/>
<path d="" fill="#E5F5FF" transform="translate(0,0)"/>
<path d="" fill="#E5F5FF" transform="translate(0,0)"/>
<path d="" fill="#E5F5FF" transform="translate(0,0)"/>
<path d="" fill="#E5F5FF" transform="translate(0,0)"/>
<path d="" fill="#E5F5FF" transform="translate(0,0)"/>
<path d="" fill="#E5F5FF" transform="translate(0,0)"/>
<path d="" fill="#E5F5FF" transform="translate(0,0)"/>
<path d="" fill="#E5F5FF" transform="translate(0,0)"/>
<path d="" fill="#E5F5FF" transform="translate(0,0)"/>
<path d="" fill="#E5F5FF" transform="translate(0,0)"/>
<path d="" fill="#E5F5FF" transform="translate(0,0)"/>
<path d="" fill="#E5F5FF" transform="translate(0,0)"/>
<path d="" fill="#E5F5FF" transform="translate(0,0)"/>
<path d="" fill="#E5F5FF" transform="translate(0,0)"/>
<path d="" fill="#E5F5FF" transform="translate(0,0)"/>
<path d="" fill="#E5F5FF" transform="translate(0,0)"/>
<path d="" fill="#E5F5FF" transform="translate(0,0)"/>
<path d="" fill="#E5F5FF" transform="translate(0,0)"/>
<path d="" fill="#E5F5FF" transform="translate(0,0)"/>
<path d="" fill="#E5F5FF" transform="translate(0,0)"/>
<path d="" fill="#E5F5FF" transform="translate(0,0)"/>
<path d="" fill="#E5F5FF" transform="translate(0,0)"/>
<path d="" fill="#E5F5FF" transform="translate(0,0)"/>
<path d="" fill="#E5F5FF" transform="translate(0,0)"/>
<path d="" fill="#E5F5FF" transform="translate(0,0)"/>
<path d="" fill="#E5F5FF" transform="translate(0,0)"/>
<path d="" fill="#E5F5FF" transform="translate(0,0)"/>
<path d="" fill="#E5F5FF" transform="translate(0,0)"/>
<path d="" fill="#E5F5FF" transform="translate(0,0)"/>
<path d="" fill="#E5F5FF" transform="translate(0,0)"/>
<path d="" fill="#E5F5FF" transform="translate(0,0)"/>
<path d="" fill="#E5F5FF" transform="translate(0,0)"/>
<path d="" fill="#E5F5FF" transform="translate(0,0)"/>
<path d="" fill="#E5F5FF" transform="translate(0,0)"/>
<path d="" fill="#E5F5FF" transform="translate(0,0)"/>
<path d="" fill="#E5F5FF" transform="translate(0,0)"/>
<path d="" fill="#E5F5FF" transform="translate(0,0)"/>
<path d="" fill="#E5F5FF" transform="translate(0,0)"/>
<path d="" fill="#E5F5FF" transform="translate(0,0)"/>
<path d="" fill="#E5F5FF" transform="translate(0,0)"/>
<path d="" fill="#E5F5FF" transform="translate(0,0)"/>
<path d="" fill="#E5F5FF" transform="translate(0,0)"/>
<path d="" fill="#E5F5FF" transform="translate(0,0)"/>
<path d="" fill="#E5F5FF" transform="translate(0,0)"/>
<path d="" fill="#E5F5FF" transform="translate(0,0)"/>
<path d="" fill="#E5F5FF" transform="translate(0,0)"/>
<path d="" fill="#E5F5FF" transform="translate(0,0)"/>
<path d="" fill="#E5F5FF" transform="translate(0,0)"/>
<path d="" fill="#E5F5FF" transform="translate(0,0)"/>
<path d="" fill="#E5F5FF" transform="translate(0,0)"/>
<path d="" fill="#E5F5FF" transform="translate(0,0)"/>
<path d="" fill="#E5F5FF" transform="translate(0,0)"/>
<path d="" fill="#E5F5FF" transform="translate(0,0)"/>
</svg>
